%TF.GenerationSoftware,KiCad,Pcbnew,7.0.1*%
%TF.CreationDate,2023-05-29T15:36:50+02:00*%
%TF.ProjectId,stlink-converter,73746c69-6e6b-42d6-936f-6e7665727465,rev?*%
%TF.SameCoordinates,Original*%
%TF.FileFunction,Soldermask,Top*%
%TF.FilePolarity,Negative*%
%FSLAX46Y46*%
G04 Gerber Fmt 4.6, Leading zero omitted, Abs format (unit mm)*
G04 Created by KiCad (PCBNEW 7.0.1) date 2023-05-29 15:36:50*
%MOMM*%
%LPD*%
G01*
G04 APERTURE LIST*
G04 Aperture macros list*
%AMRoundRect*
0 Rectangle with rounded corners*
0 $1 Rounding radius*
0 $2 $3 $4 $5 $6 $7 $8 $9 X,Y pos of 4 corners*
0 Add a 4 corners polygon primitive as box body*
4,1,4,$2,$3,$4,$5,$6,$7,$8,$9,$2,$3,0*
0 Add four circle primitives for the rounded corners*
1,1,$1+$1,$2,$3*
1,1,$1+$1,$4,$5*
1,1,$1+$1,$6,$7*
1,1,$1+$1,$8,$9*
0 Add four rect primitives between the rounded corners*
20,1,$1+$1,$2,$3,$4,$5,0*
20,1,$1+$1,$4,$5,$6,$7,0*
20,1,$1+$1,$6,$7,$8,$9,0*
20,1,$1+$1,$8,$9,$2,$3,0*%
G04 Aperture macros list end*
%ADD10C,0.100000*%
%ADD11C,0.300000*%
%ADD12C,2.000000*%
%ADD13C,1.000000*%
%ADD14O,1.000000X1.000000*%
%ADD15RoundRect,0.250000X0.250000X-0.250000X0.250000X0.250000X-0.250000X0.250000X-0.250000X-0.250000X0*%
%ADD16RoundRect,0.425000X-0.425000X0.425000X-0.425000X-0.425000X0.425000X-0.425000X0.425000X0.425000X0*%
%ADD17O,1.700000X1.700000*%
%ADD18C,1.700000*%
%ADD19R,1.550000X1.300000*%
%ADD20RoundRect,0.425000X-0.425000X-0.425000X0.425000X-0.425000X0.425000X0.425000X-0.425000X0.425000X0*%
%ADD21RoundRect,0.425000X0.425000X0.425000X-0.425000X0.425000X-0.425000X-0.425000X0.425000X-0.425000X0*%
G04 APERTURE END LIST*
D10*
X112166380Y-68444000D02*
X112280666Y-68482095D01*
X112280666Y-68482095D02*
X112471142Y-68482095D01*
X112471142Y-68482095D02*
X112547333Y-68444000D01*
X112547333Y-68444000D02*
X112585428Y-68405904D01*
X112585428Y-68405904D02*
X112623523Y-68329714D01*
X112623523Y-68329714D02*
X112623523Y-68253523D01*
X112623523Y-68253523D02*
X112585428Y-68177333D01*
X112585428Y-68177333D02*
X112547333Y-68139238D01*
X112547333Y-68139238D02*
X112471142Y-68101142D01*
X112471142Y-68101142D02*
X112318761Y-68063047D01*
X112318761Y-68063047D02*
X112242571Y-68024952D01*
X112242571Y-68024952D02*
X112204476Y-67986857D01*
X112204476Y-67986857D02*
X112166380Y-67910666D01*
X112166380Y-67910666D02*
X112166380Y-67834476D01*
X112166380Y-67834476D02*
X112204476Y-67758285D01*
X112204476Y-67758285D02*
X112242571Y-67720190D01*
X112242571Y-67720190D02*
X112318761Y-67682095D01*
X112318761Y-67682095D02*
X112509238Y-67682095D01*
X112509238Y-67682095D02*
X112623523Y-67720190D01*
X112852095Y-67682095D02*
X113309238Y-67682095D01*
X113080666Y-68482095D02*
X113080666Y-67682095D01*
X113575905Y-68482095D02*
X113575905Y-67948761D01*
X113575905Y-67682095D02*
X113537809Y-67720190D01*
X113537809Y-67720190D02*
X113575905Y-67758285D01*
X113575905Y-67758285D02*
X113614000Y-67720190D01*
X113614000Y-67720190D02*
X113575905Y-67682095D01*
X113575905Y-67682095D02*
X113575905Y-67758285D01*
X113956857Y-67948761D02*
X113956857Y-68482095D01*
X113956857Y-68024952D02*
X113994952Y-67986857D01*
X113994952Y-67986857D02*
X114071142Y-67948761D01*
X114071142Y-67948761D02*
X114185428Y-67948761D01*
X114185428Y-67948761D02*
X114261619Y-67986857D01*
X114261619Y-67986857D02*
X114299714Y-68063047D01*
X114299714Y-68063047D02*
X114299714Y-68482095D01*
X114680667Y-68482095D02*
X114680667Y-67682095D01*
X114756857Y-68177333D02*
X114985429Y-68482095D01*
X114985429Y-67948761D02*
X114680667Y-68253523D01*
X116394953Y-68405904D02*
X116356857Y-68444000D01*
X116356857Y-68444000D02*
X116242572Y-68482095D01*
X116242572Y-68482095D02*
X116166381Y-68482095D01*
X116166381Y-68482095D02*
X116052095Y-68444000D01*
X116052095Y-68444000D02*
X115975905Y-68367809D01*
X115975905Y-68367809D02*
X115937810Y-68291619D01*
X115937810Y-68291619D02*
X115899714Y-68139238D01*
X115899714Y-68139238D02*
X115899714Y-68024952D01*
X115899714Y-68024952D02*
X115937810Y-67872571D01*
X115937810Y-67872571D02*
X115975905Y-67796380D01*
X115975905Y-67796380D02*
X116052095Y-67720190D01*
X116052095Y-67720190D02*
X116166381Y-67682095D01*
X116166381Y-67682095D02*
X116242572Y-67682095D01*
X116242572Y-67682095D02*
X116356857Y-67720190D01*
X116356857Y-67720190D02*
X116394953Y-67758285D01*
X116852095Y-68482095D02*
X116775905Y-68444000D01*
X116775905Y-68444000D02*
X116737810Y-68405904D01*
X116737810Y-68405904D02*
X116699714Y-68329714D01*
X116699714Y-68329714D02*
X116699714Y-68101142D01*
X116699714Y-68101142D02*
X116737810Y-68024952D01*
X116737810Y-68024952D02*
X116775905Y-67986857D01*
X116775905Y-67986857D02*
X116852095Y-67948761D01*
X116852095Y-67948761D02*
X116966381Y-67948761D01*
X116966381Y-67948761D02*
X117042572Y-67986857D01*
X117042572Y-67986857D02*
X117080667Y-68024952D01*
X117080667Y-68024952D02*
X117118762Y-68101142D01*
X117118762Y-68101142D02*
X117118762Y-68329714D01*
X117118762Y-68329714D02*
X117080667Y-68405904D01*
X117080667Y-68405904D02*
X117042572Y-68444000D01*
X117042572Y-68444000D02*
X116966381Y-68482095D01*
X116966381Y-68482095D02*
X116852095Y-68482095D01*
X117461620Y-67948761D02*
X117461620Y-68482095D01*
X117461620Y-68024952D02*
X117499715Y-67986857D01*
X117499715Y-67986857D02*
X117575905Y-67948761D01*
X117575905Y-67948761D02*
X117690191Y-67948761D01*
X117690191Y-67948761D02*
X117766382Y-67986857D01*
X117766382Y-67986857D02*
X117804477Y-68063047D01*
X117804477Y-68063047D02*
X117804477Y-68482095D01*
X118109239Y-67948761D02*
X118299715Y-68482095D01*
X118299715Y-68482095D02*
X118490192Y-67948761D01*
X119099716Y-68444000D02*
X119023525Y-68482095D01*
X119023525Y-68482095D02*
X118871144Y-68482095D01*
X118871144Y-68482095D02*
X118794954Y-68444000D01*
X118794954Y-68444000D02*
X118756858Y-68367809D01*
X118756858Y-68367809D02*
X118756858Y-68063047D01*
X118756858Y-68063047D02*
X118794954Y-67986857D01*
X118794954Y-67986857D02*
X118871144Y-67948761D01*
X118871144Y-67948761D02*
X119023525Y-67948761D01*
X119023525Y-67948761D02*
X119099716Y-67986857D01*
X119099716Y-67986857D02*
X119137811Y-68063047D01*
X119137811Y-68063047D02*
X119137811Y-68139238D01*
X119137811Y-68139238D02*
X118756858Y-68215428D01*
X119480668Y-68482095D02*
X119480668Y-67948761D01*
X119480668Y-68101142D02*
X119518763Y-68024952D01*
X119518763Y-68024952D02*
X119556858Y-67986857D01*
X119556858Y-67986857D02*
X119633049Y-67948761D01*
X119633049Y-67948761D02*
X119709239Y-67948761D01*
X119861620Y-67948761D02*
X120166382Y-67948761D01*
X119975906Y-67682095D02*
X119975906Y-68367809D01*
X119975906Y-68367809D02*
X120014001Y-68444000D01*
X120014001Y-68444000D02*
X120090191Y-68482095D01*
X120090191Y-68482095D02*
X120166382Y-68482095D01*
X120737811Y-68444000D02*
X120661620Y-68482095D01*
X120661620Y-68482095D02*
X120509239Y-68482095D01*
X120509239Y-68482095D02*
X120433049Y-68444000D01*
X120433049Y-68444000D02*
X120394953Y-68367809D01*
X120394953Y-68367809D02*
X120394953Y-68063047D01*
X120394953Y-68063047D02*
X120433049Y-67986857D01*
X120433049Y-67986857D02*
X120509239Y-67948761D01*
X120509239Y-67948761D02*
X120661620Y-67948761D01*
X120661620Y-67948761D02*
X120737811Y-67986857D01*
X120737811Y-67986857D02*
X120775906Y-68063047D01*
X120775906Y-68063047D02*
X120775906Y-68139238D01*
X120775906Y-68139238D02*
X120394953Y-68215428D01*
X121118763Y-68482095D02*
X121118763Y-67948761D01*
X121118763Y-68101142D02*
X121156858Y-68024952D01*
X121156858Y-68024952D02*
X121194953Y-67986857D01*
X121194953Y-67986857D02*
X121271144Y-67948761D01*
X121271144Y-67948761D02*
X121347334Y-67948761D01*
X122452096Y-68786857D02*
X122414001Y-68748761D01*
X122414001Y-68748761D02*
X122337810Y-68634476D01*
X122337810Y-68634476D02*
X122299715Y-68558285D01*
X122299715Y-68558285D02*
X122261620Y-68444000D01*
X122261620Y-68444000D02*
X122223525Y-68253523D01*
X122223525Y-68253523D02*
X122223525Y-68101142D01*
X122223525Y-68101142D02*
X122261620Y-67910666D01*
X122261620Y-67910666D02*
X122299715Y-67796380D01*
X122299715Y-67796380D02*
X122337810Y-67720190D01*
X122337810Y-67720190D02*
X122414001Y-67605904D01*
X122414001Y-67605904D02*
X122452096Y-67567809D01*
X122756858Y-68482095D02*
X122756858Y-67948761D01*
X122756858Y-68101142D02*
X122794953Y-68024952D01*
X122794953Y-68024952D02*
X122833048Y-67986857D01*
X122833048Y-67986857D02*
X122909239Y-67948761D01*
X122909239Y-67948761D02*
X122985429Y-67948761D01*
X123556858Y-68444000D02*
X123480667Y-68482095D01*
X123480667Y-68482095D02*
X123328286Y-68482095D01*
X123328286Y-68482095D02*
X123252096Y-68444000D01*
X123252096Y-68444000D02*
X123214000Y-68367809D01*
X123214000Y-68367809D02*
X123214000Y-68063047D01*
X123214000Y-68063047D02*
X123252096Y-67986857D01*
X123252096Y-67986857D02*
X123328286Y-67948761D01*
X123328286Y-67948761D02*
X123480667Y-67948761D01*
X123480667Y-67948761D02*
X123556858Y-67986857D01*
X123556858Y-67986857D02*
X123594953Y-68063047D01*
X123594953Y-68063047D02*
X123594953Y-68139238D01*
X123594953Y-68139238D02*
X123214000Y-68215428D01*
X123861619Y-67948761D02*
X124052095Y-68482095D01*
X124052095Y-68482095D02*
X124242572Y-67948761D01*
X125118762Y-67758285D02*
X125156858Y-67720190D01*
X125156858Y-67720190D02*
X125233048Y-67682095D01*
X125233048Y-67682095D02*
X125423524Y-67682095D01*
X125423524Y-67682095D02*
X125499715Y-67720190D01*
X125499715Y-67720190D02*
X125537810Y-67758285D01*
X125537810Y-67758285D02*
X125575905Y-67834476D01*
X125575905Y-67834476D02*
X125575905Y-67910666D01*
X125575905Y-67910666D02*
X125537810Y-68024952D01*
X125537810Y-68024952D02*
X125080667Y-68482095D01*
X125080667Y-68482095D02*
X125575905Y-68482095D01*
X125842572Y-68786857D02*
X125880667Y-68748761D01*
X125880667Y-68748761D02*
X125956858Y-68634476D01*
X125956858Y-68634476D02*
X125994953Y-68558285D01*
X125994953Y-68558285D02*
X126033048Y-68444000D01*
X126033048Y-68444000D02*
X126071144Y-68253523D01*
X126071144Y-68253523D02*
X126071144Y-68101142D01*
X126071144Y-68101142D02*
X126033048Y-67910666D01*
X126033048Y-67910666D02*
X125994953Y-67796380D01*
X125994953Y-67796380D02*
X125956858Y-67720190D01*
X125956858Y-67720190D02*
X125880667Y-67605904D01*
X125880667Y-67605904D02*
X125842572Y-67567809D01*
D11*
G36*
X102839859Y-82041356D02*
G01*
X102872486Y-82042653D01*
X102904044Y-82044814D01*
X102934532Y-82047839D01*
X102963950Y-82051729D01*
X102992299Y-82056483D01*
X103019578Y-82062102D01*
X103045787Y-82068585D01*
X103070926Y-82075932D01*
X103094995Y-82084144D01*
X103117995Y-82093220D01*
X103139925Y-82103160D01*
X103160785Y-82113965D01*
X103180576Y-82125634D01*
X103199296Y-82138168D01*
X103216947Y-82151566D01*
X103233529Y-82165829D01*
X103249040Y-82180955D01*
X103263482Y-82196947D01*
X103276854Y-82213802D01*
X103289156Y-82231522D01*
X103300388Y-82250107D01*
X103310551Y-82269555D01*
X103319644Y-82289869D01*
X103327667Y-82311046D01*
X103334620Y-82333088D01*
X103340504Y-82355995D01*
X103345318Y-82379765D01*
X103349062Y-82404400D01*
X103351736Y-82429900D01*
X103353341Y-82456264D01*
X103353876Y-82483492D01*
X103353591Y-82502418D01*
X103352735Y-82520956D01*
X103351310Y-82539106D01*
X103349314Y-82556868D01*
X103346747Y-82574242D01*
X103343611Y-82591229D01*
X103339904Y-82607828D01*
X103335626Y-82624039D01*
X103330779Y-82639862D01*
X103325361Y-82655297D01*
X103319373Y-82670344D01*
X103312815Y-82685004D01*
X103305686Y-82699276D01*
X103297987Y-82713160D01*
X103289718Y-82726656D01*
X103280878Y-82739764D01*
X103271468Y-82752484D01*
X103261488Y-82764817D01*
X103250937Y-82776762D01*
X103239816Y-82788319D01*
X103228125Y-82799488D01*
X103215864Y-82810269D01*
X103203032Y-82820663D01*
X103189630Y-82830668D01*
X103175658Y-82840286D01*
X103161115Y-82849516D01*
X103146003Y-82858358D01*
X103130319Y-82866812D01*
X103114066Y-82874879D01*
X103097242Y-82882557D01*
X103079848Y-82889848D01*
X103061884Y-82896751D01*
X103474043Y-83565000D01*
X103221252Y-83565000D01*
X102860383Y-82955003D01*
X102642763Y-82955003D01*
X102642763Y-83565000D01*
X102426608Y-83565000D01*
X102426608Y-82228136D01*
X102642763Y-82228136D01*
X102642763Y-82767791D01*
X102799933Y-82767791D01*
X102821095Y-82767535D01*
X102841533Y-82766766D01*
X102861246Y-82765485D01*
X102880236Y-82763692D01*
X102898501Y-82761387D01*
X102916042Y-82758569D01*
X102932859Y-82755239D01*
X102948952Y-82751396D01*
X102964321Y-82747041D01*
X102978965Y-82742174D01*
X102992886Y-82736794D01*
X103012408Y-82727764D01*
X103030302Y-82717582D01*
X103046566Y-82706246D01*
X103051625Y-82702212D01*
X103065899Y-82689223D01*
X103078768Y-82674850D01*
X103090233Y-82659093D01*
X103100295Y-82641950D01*
X103108952Y-82623424D01*
X103116206Y-82603512D01*
X103122055Y-82582216D01*
X103125175Y-82567250D01*
X103127671Y-82551668D01*
X103129543Y-82535470D01*
X103130791Y-82518658D01*
X103131415Y-82501230D01*
X103131493Y-82492285D01*
X103131185Y-82474964D01*
X103130262Y-82458265D01*
X103128724Y-82442186D01*
X103126570Y-82426729D01*
X103123801Y-82411892D01*
X103118493Y-82390802D01*
X103111801Y-82371110D01*
X103103724Y-82352815D01*
X103094263Y-82335917D01*
X103083417Y-82320417D01*
X103071186Y-82306315D01*
X103057571Y-82293610D01*
X103052725Y-82289685D01*
X103037135Y-82278686D01*
X103019769Y-82268768D01*
X103000625Y-82259933D01*
X102986875Y-82254643D01*
X102972335Y-82249835D01*
X102957005Y-82245507D01*
X102940885Y-82241660D01*
X102923975Y-82238294D01*
X102906275Y-82235409D01*
X102887785Y-82233005D01*
X102868505Y-82231082D01*
X102848435Y-82229639D01*
X102827575Y-82228677D01*
X102805925Y-82228196D01*
X102794804Y-82228136D01*
X102642763Y-82228136D01*
X102426608Y-82228136D01*
X102426608Y-82040924D01*
X102806161Y-82040924D01*
X102839859Y-82041356D01*
G37*
G36*
X104184897Y-82393189D02*
G01*
X104211781Y-82394855D01*
X104237963Y-82397631D01*
X104263444Y-82401518D01*
X104288224Y-82406516D01*
X104312302Y-82412624D01*
X104335679Y-82419842D01*
X104358355Y-82428171D01*
X104380330Y-82437611D01*
X104401603Y-82448161D01*
X104422176Y-82459822D01*
X104442047Y-82472593D01*
X104461216Y-82486475D01*
X104479685Y-82501467D01*
X104497452Y-82517570D01*
X104514518Y-82534783D01*
X104530711Y-82552915D01*
X104545859Y-82571775D01*
X104559963Y-82591361D01*
X104573022Y-82611674D01*
X104585036Y-82632714D01*
X104596005Y-82654481D01*
X104605930Y-82676975D01*
X104614810Y-82700197D01*
X104622646Y-82724145D01*
X104629436Y-82748820D01*
X104635182Y-82774222D01*
X104639883Y-82800351D01*
X104643540Y-82827208D01*
X104646152Y-82854791D01*
X104647719Y-82883101D01*
X104648241Y-82912138D01*
X104648241Y-83040732D01*
X103851032Y-83040732D01*
X103851810Y-83062912D01*
X103853228Y-83084387D01*
X103855285Y-83105158D01*
X103857982Y-83125225D01*
X103861318Y-83144588D01*
X103865295Y-83163247D01*
X103869911Y-83181201D01*
X103875167Y-83198452D01*
X103881062Y-83214999D01*
X103887597Y-83230841D01*
X103894772Y-83245979D01*
X103902587Y-83260413D01*
X103911041Y-83274143D01*
X103920135Y-83287169D01*
X103929869Y-83299491D01*
X103940242Y-83311109D01*
X103951255Y-83322023D01*
X103962908Y-83332232D01*
X103975200Y-83341738D01*
X103988133Y-83350539D01*
X104001705Y-83358636D01*
X104015916Y-83366029D01*
X104030768Y-83372718D01*
X104046259Y-83378703D01*
X104062389Y-83383984D01*
X104079160Y-83388561D01*
X104096570Y-83392433D01*
X104114620Y-83395602D01*
X104133310Y-83398066D01*
X104152639Y-83399826D01*
X104172608Y-83400883D01*
X104193217Y-83401235D01*
X104218022Y-83400904D01*
X104242796Y-83399912D01*
X104267538Y-83398259D01*
X104292249Y-83395945D01*
X104316929Y-83392970D01*
X104341577Y-83389334D01*
X104366193Y-83385036D01*
X104390778Y-83380077D01*
X104415332Y-83374457D01*
X104439854Y-83368176D01*
X104464345Y-83361234D01*
X104488804Y-83353630D01*
X104513231Y-83345366D01*
X104537628Y-83336440D01*
X104561992Y-83326853D01*
X104586325Y-83316605D01*
X104586325Y-83507114D01*
X104563691Y-83516963D01*
X104540850Y-83526176D01*
X104517804Y-83534754D01*
X104494551Y-83542697D01*
X104471092Y-83550004D01*
X104447428Y-83556676D01*
X104423557Y-83562713D01*
X104399480Y-83568114D01*
X104375197Y-83572879D01*
X104350707Y-83577009D01*
X104326012Y-83580504D01*
X104301111Y-83583364D01*
X104276003Y-83585587D01*
X104250690Y-83587176D01*
X104225170Y-83588129D01*
X104199445Y-83588447D01*
X104183470Y-83588293D01*
X104167696Y-83587831D01*
X104152120Y-83587062D01*
X104136745Y-83585985D01*
X104121569Y-83584601D01*
X104106593Y-83582908D01*
X104091816Y-83580908D01*
X104077239Y-83578601D01*
X104048684Y-83573062D01*
X104020928Y-83566293D01*
X103993970Y-83558293D01*
X103967811Y-83549063D01*
X103942450Y-83538601D01*
X103917888Y-83526909D01*
X103894124Y-83513986D01*
X103871159Y-83499832D01*
X103848993Y-83484448D01*
X103827625Y-83467833D01*
X103807056Y-83449987D01*
X103787285Y-83430910D01*
X103768519Y-83410760D01*
X103750963Y-83389694D01*
X103734619Y-83367712D01*
X103719485Y-83344815D01*
X103705561Y-83321001D01*
X103692849Y-83296271D01*
X103681347Y-83270626D01*
X103671056Y-83244064D01*
X103661975Y-83216587D01*
X103657889Y-83202505D01*
X103654106Y-83188194D01*
X103650625Y-83173654D01*
X103647447Y-83158885D01*
X103644571Y-83143887D01*
X103641999Y-83128660D01*
X103639728Y-83113204D01*
X103637761Y-83097519D01*
X103636096Y-83081605D01*
X103634734Y-83065462D01*
X103633675Y-83049090D01*
X103632918Y-83032489D01*
X103632464Y-83015659D01*
X103632313Y-82998600D01*
X103632452Y-82981333D01*
X103632870Y-82964288D01*
X103633565Y-82947467D01*
X103634540Y-82930869D01*
X103635792Y-82914494D01*
X103637323Y-82898342D01*
X103639132Y-82882414D01*
X103641220Y-82866709D01*
X103642004Y-82861580D01*
X103855795Y-82861580D01*
X104421461Y-82861580D01*
X104421199Y-82843751D01*
X104420412Y-82826488D01*
X104419101Y-82809791D01*
X104417265Y-82793660D01*
X104414905Y-82778094D01*
X104412020Y-82763095D01*
X104408611Y-82748662D01*
X104400219Y-82721494D01*
X104389729Y-82696590D01*
X104377141Y-82673950D01*
X104362455Y-82653574D01*
X104345671Y-82635461D01*
X104326789Y-82619613D01*
X104305809Y-82606029D01*
X104282731Y-82594709D01*
X104257555Y-82585653D01*
X104230280Y-82578861D01*
X104200908Y-82574333D01*
X104185436Y-82572918D01*
X104169438Y-82572069D01*
X104152916Y-82571786D01*
X104136123Y-82572069D01*
X104119813Y-82572918D01*
X104103989Y-82574333D01*
X104088648Y-82576314D01*
X104073792Y-82578861D01*
X104059421Y-82581974D01*
X104032131Y-82589898D01*
X104006779Y-82600086D01*
X103983364Y-82612538D01*
X103961888Y-82627254D01*
X103942349Y-82644234D01*
X103924747Y-82663479D01*
X103909084Y-82684987D01*
X103895358Y-82708759D01*
X103883570Y-82734795D01*
X103878403Y-82748662D01*
X103873720Y-82763095D01*
X103869521Y-82778094D01*
X103865807Y-82793660D01*
X103862577Y-82809791D01*
X103859832Y-82826488D01*
X103857571Y-82843751D01*
X103855795Y-82861580D01*
X103642004Y-82861580D01*
X103643586Y-82851227D01*
X103646230Y-82835969D01*
X103649153Y-82820934D01*
X103652354Y-82806122D01*
X103655833Y-82791533D01*
X103659591Y-82777167D01*
X103663627Y-82763025D01*
X103672535Y-82735411D01*
X103682555Y-82708689D01*
X103693689Y-82682860D01*
X103705937Y-82657924D01*
X103719298Y-82633882D01*
X103733772Y-82610732D01*
X103749359Y-82588476D01*
X103766060Y-82567112D01*
X103774829Y-82556765D01*
X103793067Y-82536890D01*
X103812060Y-82518297D01*
X103831810Y-82500986D01*
X103852315Y-82484958D01*
X103873575Y-82470211D01*
X103895591Y-82456748D01*
X103918363Y-82444566D01*
X103941891Y-82433667D01*
X103966174Y-82424050D01*
X103991212Y-82415715D01*
X104017007Y-82408662D01*
X104043557Y-82402892D01*
X104070862Y-82398404D01*
X104098924Y-82395198D01*
X104127740Y-82393275D01*
X104142432Y-82392794D01*
X104157313Y-82392634D01*
X104184897Y-82393189D01*
G37*
G36*
X104964780Y-83512609D02*
G01*
X104964780Y-83316605D01*
X104991302Y-83327829D01*
X105017565Y-83338329D01*
X105043567Y-83348105D01*
X105069308Y-83357156D01*
X105094789Y-83365484D01*
X105120009Y-83373088D01*
X105144969Y-83379967D01*
X105169669Y-83386122D01*
X105194108Y-83391553D01*
X105218287Y-83396260D01*
X105242205Y-83400243D01*
X105265862Y-83403502D01*
X105289260Y-83406036D01*
X105312396Y-83407846D01*
X105335273Y-83408933D01*
X105357889Y-83409295D01*
X105374591Y-83409145D01*
X105390763Y-83408696D01*
X105406404Y-83407949D01*
X105421516Y-83406902D01*
X105450148Y-83403911D01*
X105476659Y-83399723D01*
X105501050Y-83394340D01*
X105523319Y-83387759D01*
X105543468Y-83379983D01*
X105561495Y-83371010D01*
X105577402Y-83360840D01*
X105591188Y-83349474D01*
X105602853Y-83336912D01*
X105612397Y-83323153D01*
X105619820Y-83308198D01*
X105625123Y-83292047D01*
X105628304Y-83274699D01*
X105629364Y-83256154D01*
X105628202Y-83239858D01*
X105624713Y-83224169D01*
X105618899Y-83209089D01*
X105610760Y-83194617D01*
X105600295Y-83180753D01*
X105587504Y-83167497D01*
X105581737Y-83162365D01*
X105567758Y-83151729D01*
X105554554Y-83143256D01*
X105539018Y-83134358D01*
X105521152Y-83125035D01*
X105507945Y-83118584D01*
X105493703Y-83111944D01*
X105478425Y-83105114D01*
X105462110Y-83098096D01*
X105444759Y-83090889D01*
X105426372Y-83083493D01*
X105406949Y-83075908D01*
X105386490Y-83068134D01*
X105364995Y-83060172D01*
X105353859Y-83056120D01*
X105338829Y-83050454D01*
X105324147Y-83044815D01*
X105309814Y-83039203D01*
X105295830Y-83033617D01*
X105282194Y-83028057D01*
X105255967Y-83017018D01*
X105231135Y-83006084D01*
X105207696Y-82995256D01*
X105185651Y-82984534D01*
X105165000Y-82973918D01*
X105145743Y-82963408D01*
X105127880Y-82953004D01*
X105111411Y-82942706D01*
X105096336Y-82932513D01*
X105082654Y-82922427D01*
X105070367Y-82912446D01*
X105059473Y-82902572D01*
X105045746Y-82887958D01*
X105034223Y-82873144D01*
X105023833Y-82857828D01*
X105014577Y-82842009D01*
X105006454Y-82825688D01*
X104999464Y-82808864D01*
X104993608Y-82791539D01*
X104988885Y-82773711D01*
X104985296Y-82755380D01*
X104982840Y-82736548D01*
X104981518Y-82717213D01*
X104981266Y-82704043D01*
X104981730Y-82686020D01*
X104983121Y-82668495D01*
X104985439Y-82651467D01*
X104988685Y-82634938D01*
X104992858Y-82618907D01*
X104997959Y-82603373D01*
X105003986Y-82588338D01*
X105010942Y-82573801D01*
X105018824Y-82559762D01*
X105027634Y-82546221D01*
X105037371Y-82533177D01*
X105048036Y-82520632D01*
X105059628Y-82508585D01*
X105072147Y-82497036D01*
X105085594Y-82485985D01*
X105099968Y-82475432D01*
X105115194Y-82465406D01*
X105131103Y-82456026D01*
X105147697Y-82447294D01*
X105164975Y-82439208D01*
X105182937Y-82431769D01*
X105201583Y-82424977D01*
X105220913Y-82418832D01*
X105240927Y-82413333D01*
X105261625Y-82408482D01*
X105283007Y-82404277D01*
X105305073Y-82400720D01*
X105327824Y-82397809D01*
X105351258Y-82395545D01*
X105375377Y-82393928D01*
X105400179Y-82392957D01*
X105425666Y-82392634D01*
X105451424Y-82392953D01*
X105477043Y-82393910D01*
X105502521Y-82395506D01*
X105527859Y-82397740D01*
X105553056Y-82400612D01*
X105578114Y-82404123D01*
X105603031Y-82408272D01*
X105627807Y-82413059D01*
X105652444Y-82418484D01*
X105676940Y-82424548D01*
X105701296Y-82431249D01*
X105725512Y-82438590D01*
X105749588Y-82446568D01*
X105773523Y-82455185D01*
X105797318Y-82464440D01*
X105820973Y-82474333D01*
X105750631Y-82649089D01*
X105726309Y-82639728D01*
X105702437Y-82630971D01*
X105679014Y-82622818D01*
X105656040Y-82615269D01*
X105633516Y-82608324D01*
X105611441Y-82601982D01*
X105589816Y-82596245D01*
X105568640Y-82591112D01*
X105547913Y-82586582D01*
X105527635Y-82582657D01*
X105507807Y-82579335D01*
X105488429Y-82576617D01*
X105469499Y-82574504D01*
X105451019Y-82572994D01*
X105432989Y-82572088D01*
X105415408Y-82571786D01*
X105387369Y-82572275D01*
X105361140Y-82573744D01*
X105336720Y-82576191D01*
X105314108Y-82579617D01*
X105293305Y-82584022D01*
X105274312Y-82589406D01*
X105257127Y-82595769D01*
X105241751Y-82603110D01*
X105228184Y-82611431D01*
X105216426Y-82620730D01*
X105202181Y-82636514D01*
X105192006Y-82654501D01*
X105185901Y-82674691D01*
X105184092Y-82689374D01*
X105183866Y-82697083D01*
X105185055Y-82714310D01*
X105188624Y-82730499D01*
X105194572Y-82745651D01*
X105202899Y-82759765D01*
X105213606Y-82772842D01*
X105226691Y-82784881D01*
X105232592Y-82789406D01*
X105247006Y-82798686D01*
X105260627Y-82806284D01*
X105276656Y-82814429D01*
X105295094Y-82823122D01*
X105308723Y-82829222D01*
X105323424Y-82835564D01*
X105339195Y-82842150D01*
X105356036Y-82848980D01*
X105373948Y-82856052D01*
X105392930Y-82863368D01*
X105412983Y-82870927D01*
X105434106Y-82878729D01*
X105456300Y-82886775D01*
X105467798Y-82890889D01*
X105494750Y-82900960D01*
X105520560Y-82911022D01*
X105545228Y-82921076D01*
X105568754Y-82931121D01*
X105591138Y-82941157D01*
X105612380Y-82951185D01*
X105632480Y-82961204D01*
X105651438Y-82971215D01*
X105669254Y-82981217D01*
X105685928Y-82991210D01*
X105701460Y-83001195D01*
X105715849Y-83011171D01*
X105729097Y-83021139D01*
X105741203Y-83031098D01*
X105752167Y-83041049D01*
X105761988Y-83050990D01*
X105775279Y-83066153D01*
X105787263Y-83081967D01*
X105797940Y-83098431D01*
X105807309Y-83115545D01*
X105815371Y-83133310D01*
X105822125Y-83151725D01*
X105827572Y-83170790D01*
X105831712Y-83190507D01*
X105834545Y-83210873D01*
X105836070Y-83231890D01*
X105836360Y-83246263D01*
X105835874Y-83266006D01*
X105834414Y-83285212D01*
X105831981Y-83303879D01*
X105828575Y-83322008D01*
X105824196Y-83339600D01*
X105818843Y-83356653D01*
X105812518Y-83373168D01*
X105805219Y-83389145D01*
X105796948Y-83404583D01*
X105787703Y-83419484D01*
X105777484Y-83433847D01*
X105766293Y-83447671D01*
X105754129Y-83460958D01*
X105740991Y-83473706D01*
X105726880Y-83485916D01*
X105711796Y-83497588D01*
X105695837Y-83508591D01*
X105679098Y-83518883D01*
X105661582Y-83528466D01*
X105643286Y-83537339D01*
X105624212Y-83545502D01*
X105604360Y-83552955D01*
X105583729Y-83559699D01*
X105562320Y-83565732D01*
X105540132Y-83571056D01*
X105517165Y-83575670D01*
X105493420Y-83579574D01*
X105468897Y-83582768D01*
X105443595Y-83585253D01*
X105417514Y-83587027D01*
X105390655Y-83588092D01*
X105363018Y-83588447D01*
X105346968Y-83588373D01*
X105331151Y-83588151D01*
X105315567Y-83587780D01*
X105300215Y-83587262D01*
X105285095Y-83586595D01*
X105270209Y-83585781D01*
X105255554Y-83584818D01*
X105226944Y-83582448D01*
X105199263Y-83579486D01*
X105172513Y-83575931D01*
X105146693Y-83571783D01*
X105121803Y-83567043D01*
X105097843Y-83561711D01*
X105074814Y-83555786D01*
X105052715Y-83549269D01*
X105031546Y-83542159D01*
X105011307Y-83534457D01*
X104991998Y-83526162D01*
X104973620Y-83517275D01*
X104964780Y-83512609D01*
G37*
G36*
X106705484Y-82393189D02*
G01*
X106732367Y-82394855D01*
X106758549Y-82397631D01*
X106784030Y-82401518D01*
X106808810Y-82406516D01*
X106832888Y-82412624D01*
X106856265Y-82419842D01*
X106878941Y-82428171D01*
X106900916Y-82437611D01*
X106922190Y-82448161D01*
X106942762Y-82459822D01*
X106962633Y-82472593D01*
X106981802Y-82486475D01*
X107000271Y-82501467D01*
X107018038Y-82517570D01*
X107035104Y-82534783D01*
X107051297Y-82552915D01*
X107066445Y-82571775D01*
X107080549Y-82591361D01*
X107093608Y-82611674D01*
X107105622Y-82632714D01*
X107116592Y-82654481D01*
X107126516Y-82676975D01*
X107135396Y-82700197D01*
X107143232Y-82724145D01*
X107150022Y-82748820D01*
X107155768Y-82774222D01*
X107160469Y-82800351D01*
X107164126Y-82827208D01*
X107166738Y-82854791D01*
X107168305Y-82883101D01*
X107168827Y-82912138D01*
X107168827Y-83040732D01*
X106371618Y-83040732D01*
X106372396Y-83062912D01*
X106373814Y-83084387D01*
X106375871Y-83105158D01*
X106378568Y-83125225D01*
X106381905Y-83144588D01*
X106385881Y-83163247D01*
X106390497Y-83181201D01*
X106395753Y-83198452D01*
X106401648Y-83214999D01*
X106408183Y-83230841D01*
X106415358Y-83245979D01*
X106423173Y-83260413D01*
X106431627Y-83274143D01*
X106440721Y-83287169D01*
X106450455Y-83299491D01*
X106460828Y-83311109D01*
X106471841Y-83322023D01*
X106483494Y-83332232D01*
X106495787Y-83341738D01*
X106508719Y-83350539D01*
X106522291Y-83358636D01*
X106536502Y-83366029D01*
X106551354Y-83372718D01*
X106566845Y-83378703D01*
X106582976Y-83383984D01*
X106599746Y-83388561D01*
X106617156Y-83392433D01*
X106635206Y-83395602D01*
X106653896Y-83398066D01*
X106673225Y-83399826D01*
X106693194Y-83400883D01*
X106713803Y-83401235D01*
X106738608Y-83400904D01*
X106763382Y-83399912D01*
X106788125Y-83398259D01*
X106812836Y-83395945D01*
X106837515Y-83392970D01*
X106862163Y-83389334D01*
X106886780Y-83385036D01*
X106911365Y-83380077D01*
X106935918Y-83374457D01*
X106960440Y-83368176D01*
X106984931Y-83361234D01*
X107009390Y-83353630D01*
X107033818Y-83345366D01*
X107058214Y-83336440D01*
X107082578Y-83326853D01*
X107106912Y-83316605D01*
X107106912Y-83507114D01*
X107084277Y-83516963D01*
X107061437Y-83526176D01*
X107038390Y-83534754D01*
X107015137Y-83542697D01*
X106991679Y-83550004D01*
X106968014Y-83556676D01*
X106944143Y-83562713D01*
X106920066Y-83568114D01*
X106895783Y-83572879D01*
X106871294Y-83577009D01*
X106846598Y-83580504D01*
X106821697Y-83583364D01*
X106796590Y-83585587D01*
X106771276Y-83587176D01*
X106745757Y-83588129D01*
X106720031Y-83588447D01*
X106704056Y-83588293D01*
X106688282Y-83587831D01*
X106672707Y-83587062D01*
X106657331Y-83585985D01*
X106642155Y-83584601D01*
X106627179Y-83582908D01*
X106612402Y-83580908D01*
X106597826Y-83578601D01*
X106569271Y-83573062D01*
X106541514Y-83566293D01*
X106514556Y-83558293D01*
X106488397Y-83549063D01*
X106463036Y-83538601D01*
X106438474Y-83526909D01*
X106414711Y-83513986D01*
X106391746Y-83499832D01*
X106369579Y-83484448D01*
X106348211Y-83467833D01*
X106327642Y-83449987D01*
X106307871Y-83430910D01*
X106289105Y-83410760D01*
X106271550Y-83389694D01*
X106255205Y-83367712D01*
X106240071Y-83344815D01*
X106226148Y-83321001D01*
X106213435Y-83296271D01*
X106201933Y-83270626D01*
X106191642Y-83244064D01*
X106182562Y-83216587D01*
X106178475Y-83202505D01*
X106174692Y-83188194D01*
X106171211Y-83173654D01*
X106168033Y-83158885D01*
X106165158Y-83143887D01*
X106162585Y-83128660D01*
X106160315Y-83113204D01*
X106158347Y-83097519D01*
X106156683Y-83081605D01*
X106155320Y-83065462D01*
X106154261Y-83049090D01*
X106153504Y-83032489D01*
X106153050Y-83015659D01*
X106152899Y-82998600D01*
X106153038Y-82981333D01*
X106153456Y-82964288D01*
X106154152Y-82947467D01*
X106155126Y-82930869D01*
X106156378Y-82914494D01*
X106157909Y-82898342D01*
X106159719Y-82882414D01*
X106161806Y-82866709D01*
X106162590Y-82861580D01*
X106376381Y-82861580D01*
X106942048Y-82861580D01*
X106941785Y-82843751D01*
X106940999Y-82826488D01*
X106939687Y-82809791D01*
X106937852Y-82793660D01*
X106935491Y-82778094D01*
X106932607Y-82763095D01*
X106929197Y-82748662D01*
X106920805Y-82721494D01*
X106910315Y-82696590D01*
X106897727Y-82673950D01*
X106883041Y-82653574D01*
X106866257Y-82635461D01*
X106847375Y-82619613D01*
X106826395Y-82606029D01*
X106803317Y-82594709D01*
X106778141Y-82585653D01*
X106750867Y-82578861D01*
X106721495Y-82574333D01*
X106706022Y-82572918D01*
X106690024Y-82572069D01*
X106673503Y-82571786D01*
X106656709Y-82572069D01*
X106640400Y-82572918D01*
X106624575Y-82574333D01*
X106609234Y-82576314D01*
X106594378Y-82578861D01*
X106580007Y-82581974D01*
X106552717Y-82589898D01*
X106527365Y-82600086D01*
X106503950Y-82612538D01*
X106482474Y-82627254D01*
X106462935Y-82644234D01*
X106445334Y-82663479D01*
X106429670Y-82684987D01*
X106415944Y-82708759D01*
X106404156Y-82734795D01*
X106398989Y-82748662D01*
X106394306Y-82763095D01*
X106390107Y-82778094D01*
X106386393Y-82793660D01*
X106383164Y-82809791D01*
X106380418Y-82826488D01*
X106378158Y-82843751D01*
X106376381Y-82861580D01*
X106162590Y-82861580D01*
X106164172Y-82851227D01*
X106166817Y-82835969D01*
X106169739Y-82820934D01*
X106172940Y-82806122D01*
X106176420Y-82791533D01*
X106180177Y-82777167D01*
X106184213Y-82763025D01*
X106193121Y-82735411D01*
X106203141Y-82708689D01*
X106214275Y-82682860D01*
X106226523Y-82657924D01*
X106239884Y-82633882D01*
X106254358Y-82610732D01*
X106269946Y-82588476D01*
X106286647Y-82567112D01*
X106295415Y-82556765D01*
X106313653Y-82536890D01*
X106332646Y-82518297D01*
X106352396Y-82500986D01*
X106372901Y-82484958D01*
X106394161Y-82470211D01*
X106416178Y-82456748D01*
X106438949Y-82444566D01*
X106462477Y-82433667D01*
X106486760Y-82424050D01*
X106511799Y-82415715D01*
X106537593Y-82408662D01*
X106564143Y-82402892D01*
X106591448Y-82398404D01*
X106619510Y-82395198D01*
X106648327Y-82393275D01*
X106663018Y-82392794D01*
X106677899Y-82392634D01*
X106705484Y-82393189D01*
G37*
G36*
X108350718Y-83388412D02*
G01*
X108350718Y-83552909D01*
X108332742Y-83557213D01*
X108314900Y-83561239D01*
X108297193Y-83564987D01*
X108279621Y-83568457D01*
X108262183Y-83571650D01*
X108244879Y-83574565D01*
X108227710Y-83577203D01*
X108210676Y-83579562D01*
X108193776Y-83581645D01*
X108177010Y-83583449D01*
X108160379Y-83584976D01*
X108143883Y-83586226D01*
X108127521Y-83587197D01*
X108111293Y-83587892D01*
X108095201Y-83588308D01*
X108079242Y-83588447D01*
X108055575Y-83588092D01*
X108032660Y-83587029D01*
X108010495Y-83585256D01*
X107989082Y-83582774D01*
X107968421Y-83579583D01*
X107948510Y-83575683D01*
X107929351Y-83571073D01*
X107910944Y-83565755D01*
X107893287Y-83559728D01*
X107876382Y-83552991D01*
X107860229Y-83545545D01*
X107844826Y-83537391D01*
X107830175Y-83528527D01*
X107816276Y-83518954D01*
X107803127Y-83508671D01*
X107790730Y-83497680D01*
X107779085Y-83485980D01*
X107768190Y-83473570D01*
X107758047Y-83460452D01*
X107748656Y-83446624D01*
X107740016Y-83432087D01*
X107732127Y-83416841D01*
X107724989Y-83400886D01*
X107718603Y-83384222D01*
X107712968Y-83366848D01*
X107708084Y-83348766D01*
X107703952Y-83329974D01*
X107700571Y-83310474D01*
X107697941Y-83290264D01*
X107696063Y-83269345D01*
X107694936Y-83247717D01*
X107694560Y-83225380D01*
X107694560Y-82586807D01*
X107419420Y-82586807D01*
X107419420Y-82462243D01*
X107696758Y-82411318D01*
X107776625Y-82114197D01*
X107905586Y-82114197D01*
X107905586Y-82416081D01*
X108356946Y-82416081D01*
X108356946Y-82586807D01*
X107905586Y-82586807D01*
X107905586Y-83222815D01*
X107906313Y-83245397D01*
X107908494Y-83266521D01*
X107912129Y-83286189D01*
X107917218Y-83304400D01*
X107923761Y-83321154D01*
X107931758Y-83336451D01*
X107941209Y-83350291D01*
X107952114Y-83362675D01*
X107964473Y-83373601D01*
X107978286Y-83383071D01*
X107993553Y-83391084D01*
X108010274Y-83397640D01*
X108028449Y-83402739D01*
X108048078Y-83406381D01*
X108069162Y-83408566D01*
X108091699Y-83409295D01*
X108110161Y-83409111D01*
X108129828Y-83408561D01*
X108150699Y-83407643D01*
X108172774Y-83406358D01*
X108188160Y-83405298D01*
X108204081Y-83404074D01*
X108220537Y-83402687D01*
X108237529Y-83401137D01*
X108255056Y-83399424D01*
X108273118Y-83397548D01*
X108291715Y-83395509D01*
X108310848Y-83393306D01*
X108330515Y-83390941D01*
X108350718Y-83388412D01*
G37*
D12*
%TO.C,H1*%
X101600000Y-73152000D03*
%TD*%
D13*
%TO.C,J3*%
X106680000Y-71120000D03*
D14*
X106680000Y-69850000D03*
X107950000Y-71120000D03*
X107950000Y-69850000D03*
X109220000Y-71120000D03*
D15*
X109220000Y-69850000D03*
D14*
X110490000Y-71120000D03*
D15*
X110490000Y-69850000D03*
D14*
X111760000Y-71120000D03*
X111760000Y-69850000D03*
%TD*%
D16*
%TO.C,J1*%
X97790000Y-88900000D03*
D17*
X97790000Y-86360000D03*
D16*
X100330000Y-88900000D03*
D17*
X100330000Y-86360000D03*
D16*
X102870000Y-88900000D03*
D17*
X102870000Y-86360000D03*
D16*
X105410000Y-88900000D03*
D17*
X105410000Y-86360000D03*
D16*
X107950000Y-88900000D03*
D17*
X107950000Y-86360000D03*
D16*
X110490000Y-88900000D03*
D17*
X110490000Y-86360000D03*
D16*
X113030000Y-88900000D03*
D17*
X113030000Y-86360000D03*
D16*
X115570000Y-88900000D03*
D17*
X115570000Y-86360000D03*
D16*
X118110000Y-88900000D03*
D17*
X118110000Y-86360000D03*
X120650000Y-88900000D03*
D18*
X120650000Y-86360000D03*
%TD*%
D19*
%TO.C,SW1*%
X113030000Y-75510000D03*
X105080000Y-75510000D03*
X113030000Y-80010000D03*
X105080000Y-80010000D03*
%TD*%
D18*
%TO.C,J4*%
X124460000Y-69850000D03*
D17*
X124460000Y-72390000D03*
X124460000Y-74930000D03*
X124460000Y-77470000D03*
X124460000Y-80010000D03*
D20*
X124460000Y-82550000D03*
%TD*%
D17*
%TO.C,J2*%
X95250000Y-69850000D03*
X95250000Y-72390000D03*
D21*
X95250000Y-74930000D03*
D17*
X95250000Y-77470000D03*
X95250000Y-80010000D03*
D21*
X95250000Y-82550000D03*
%TD*%
D12*
%TO.C,H2*%
X101600000Y-79502000D03*
%TD*%
M02*
