%TF.GenerationSoftware,KiCad,Pcbnew,7.0.1*%
%TF.CreationDate,2023-05-29T15:36:50+02:00*%
%TF.ProjectId,stlink-converter,73746c69-6e6b-42d6-936f-6e7665727465,rev?*%
%TF.SameCoordinates,Original*%
%TF.FileFunction,Soldermask,Bot*%
%TF.FilePolarity,Negative*%
%FSLAX46Y46*%
G04 Gerber Fmt 4.6, Leading zero omitted, Abs format (unit mm)*
G04 Created by KiCad (PCBNEW 7.0.1) date 2023-05-29 15:36:50*
%MOMM*%
%LPD*%
G01*
G04 APERTURE LIST*
G04 Aperture macros list*
%AMRoundRect*
0 Rectangle with rounded corners*
0 $1 Rounding radius*
0 $2 $3 $4 $5 $6 $7 $8 $9 X,Y pos of 4 corners*
0 Add a 4 corners polygon primitive as box body*
4,1,4,$2,$3,$4,$5,$6,$7,$8,$9,$2,$3,0*
0 Add four circle primitives for the rounded corners*
1,1,$1+$1,$2,$3*
1,1,$1+$1,$4,$5*
1,1,$1+$1,$6,$7*
1,1,$1+$1,$8,$9*
0 Add four rect primitives between the rounded corners*
20,1,$1+$1,$2,$3,$4,$5,0*
20,1,$1+$1,$4,$5,$6,$7,0*
20,1,$1+$1,$6,$7,$8,$9,0*
20,1,$1+$1,$8,$9,$2,$3,0*%
G04 Aperture macros list end*
%ADD10C,2.000000*%
%ADD11C,1.000000*%
%ADD12O,1.000000X1.000000*%
%ADD13RoundRect,0.250000X0.250000X-0.250000X0.250000X0.250000X-0.250000X0.250000X-0.250000X-0.250000X0*%
%ADD14RoundRect,0.425000X-0.425000X0.425000X-0.425000X-0.425000X0.425000X-0.425000X0.425000X0.425000X0*%
%ADD15O,1.700000X1.700000*%
%ADD16C,1.700000*%
%ADD17RoundRect,0.425000X-0.425000X-0.425000X0.425000X-0.425000X0.425000X0.425000X-0.425000X0.425000X0*%
%ADD18RoundRect,0.425000X0.425000X0.425000X-0.425000X0.425000X-0.425000X-0.425000X0.425000X-0.425000X0*%
G04 APERTURE END LIST*
D10*
%TO.C,H1*%
X101600000Y-73152000D03*
%TD*%
D11*
%TO.C,J3*%
X106680000Y-71120000D03*
D12*
X106680000Y-69850000D03*
X107950000Y-71120000D03*
X107950000Y-69850000D03*
X109220000Y-71120000D03*
D13*
X109220000Y-69850000D03*
D12*
X110490000Y-71120000D03*
D13*
X110490000Y-69850000D03*
D12*
X111760000Y-71120000D03*
X111760000Y-69850000D03*
%TD*%
D14*
%TO.C,J1*%
X97790000Y-88900000D03*
D15*
X97790000Y-86360000D03*
D14*
X100330000Y-88900000D03*
D15*
X100330000Y-86360000D03*
D14*
X102870000Y-88900000D03*
D15*
X102870000Y-86360000D03*
D14*
X105410000Y-88900000D03*
D15*
X105410000Y-86360000D03*
D14*
X107950000Y-88900000D03*
D15*
X107950000Y-86360000D03*
D14*
X110490000Y-88900000D03*
D15*
X110490000Y-86360000D03*
D14*
X113030000Y-88900000D03*
D15*
X113030000Y-86360000D03*
D14*
X115570000Y-88900000D03*
D15*
X115570000Y-86360000D03*
D14*
X118110000Y-88900000D03*
D15*
X118110000Y-86360000D03*
X120650000Y-88900000D03*
D16*
X120650000Y-86360000D03*
%TD*%
%TO.C,J4*%
X124460000Y-69850000D03*
D15*
X124460000Y-72390000D03*
X124460000Y-74930000D03*
X124460000Y-77470000D03*
X124460000Y-80010000D03*
D17*
X124460000Y-82550000D03*
%TD*%
D15*
%TO.C,J2*%
X95250000Y-69850000D03*
X95250000Y-72390000D03*
D18*
X95250000Y-74930000D03*
D15*
X95250000Y-77470000D03*
X95250000Y-80010000D03*
D18*
X95250000Y-82550000D03*
%TD*%
D10*
%TO.C,H2*%
X101600000Y-79502000D03*
%TD*%
M02*
