%TF.GenerationSoftware,KiCad,Pcbnew,7.0.1*%
%TF.CreationDate,2023-05-29T15:36:49+02:00*%
%TF.ProjectId,stlink-converter,73746c69-6e6b-42d6-936f-6e7665727465,rev?*%
%TF.SameCoordinates,Original*%
%TF.FileFunction,Copper,L1,Top*%
%TF.FilePolarity,Positive*%
%FSLAX46Y46*%
G04 Gerber Fmt 4.6, Leading zero omitted, Abs format (unit mm)*
G04 Created by KiCad (PCBNEW 7.0.1) date 2023-05-29 15:36:49*
%MOMM*%
%LPD*%
G01*
G04 APERTURE LIST*
G04 Aperture macros list*
%AMRoundRect*
0 Rectangle with rounded corners*
0 $1 Rounding radius*
0 $2 $3 $4 $5 $6 $7 $8 $9 X,Y pos of 4 corners*
0 Add a 4 corners polygon primitive as box body*
4,1,4,$2,$3,$4,$5,$6,$7,$8,$9,$2,$3,0*
0 Add four circle primitives for the rounded corners*
1,1,$1+$1,$2,$3*
1,1,$1+$1,$4,$5*
1,1,$1+$1,$6,$7*
1,1,$1+$1,$8,$9*
0 Add four rect primitives between the rounded corners*
20,1,$1+$1,$2,$3,$4,$5,0*
20,1,$1+$1,$4,$5,$6,$7,0*
20,1,$1+$1,$6,$7,$8,$9,0*
20,1,$1+$1,$8,$9,$2,$3,0*%
G04 Aperture macros list end*
%ADD10C,0.100000*%
%TA.AperFunction,NonConductor*%
%ADD11C,0.100000*%
%TD*%
%ADD12C,0.300000*%
%TA.AperFunction,NonConductor*%
%ADD13C,0.300000*%
%TD*%
%TA.AperFunction,ComponentPad*%
%ADD14C,1.000000*%
%TD*%
%TA.AperFunction,ComponentPad*%
%ADD15O,1.000000X1.000000*%
%TD*%
%TA.AperFunction,ComponentPad*%
%ADD16RoundRect,0.250000X0.250000X-0.250000X0.250000X0.250000X-0.250000X0.250000X-0.250000X-0.250000X0*%
%TD*%
%TA.AperFunction,ComponentPad*%
%ADD17RoundRect,0.425000X-0.425000X0.425000X-0.425000X-0.425000X0.425000X-0.425000X0.425000X0.425000X0*%
%TD*%
%TA.AperFunction,ComponentPad*%
%ADD18O,1.700000X1.700000*%
%TD*%
%TA.AperFunction,ComponentPad*%
%ADD19C,1.700000*%
%TD*%
%TA.AperFunction,SMDPad,CuDef*%
%ADD20R,1.550000X1.300000*%
%TD*%
%TA.AperFunction,ComponentPad*%
%ADD21RoundRect,0.425000X-0.425000X-0.425000X0.425000X-0.425000X0.425000X0.425000X-0.425000X0.425000X0*%
%TD*%
%TA.AperFunction,ComponentPad*%
%ADD22RoundRect,0.425000X0.425000X0.425000X-0.425000X0.425000X-0.425000X-0.425000X0.425000X-0.425000X0*%
%TD*%
%TA.AperFunction,ViaPad*%
%ADD23C,0.800000*%
%TD*%
%TA.AperFunction,Conductor*%
%ADD24C,0.400000*%
%TD*%
%TA.AperFunction,Conductor*%
%ADD25C,0.250000*%
%TD*%
G04 APERTURE END LIST*
D10*
D11*
X112166380Y-68444000D02*
X112280666Y-68482095D01*
X112280666Y-68482095D02*
X112471142Y-68482095D01*
X112471142Y-68482095D02*
X112547333Y-68444000D01*
X112547333Y-68444000D02*
X112585428Y-68405904D01*
X112585428Y-68405904D02*
X112623523Y-68329714D01*
X112623523Y-68329714D02*
X112623523Y-68253523D01*
X112623523Y-68253523D02*
X112585428Y-68177333D01*
X112585428Y-68177333D02*
X112547333Y-68139238D01*
X112547333Y-68139238D02*
X112471142Y-68101142D01*
X112471142Y-68101142D02*
X112318761Y-68063047D01*
X112318761Y-68063047D02*
X112242571Y-68024952D01*
X112242571Y-68024952D02*
X112204476Y-67986857D01*
X112204476Y-67986857D02*
X112166380Y-67910666D01*
X112166380Y-67910666D02*
X112166380Y-67834476D01*
X112166380Y-67834476D02*
X112204476Y-67758285D01*
X112204476Y-67758285D02*
X112242571Y-67720190D01*
X112242571Y-67720190D02*
X112318761Y-67682095D01*
X112318761Y-67682095D02*
X112509238Y-67682095D01*
X112509238Y-67682095D02*
X112623523Y-67720190D01*
X112852095Y-67682095D02*
X113309238Y-67682095D01*
X113080666Y-68482095D02*
X113080666Y-67682095D01*
X113575905Y-68482095D02*
X113575905Y-67948761D01*
X113575905Y-67682095D02*
X113537809Y-67720190D01*
X113537809Y-67720190D02*
X113575905Y-67758285D01*
X113575905Y-67758285D02*
X113614000Y-67720190D01*
X113614000Y-67720190D02*
X113575905Y-67682095D01*
X113575905Y-67682095D02*
X113575905Y-67758285D01*
X113956857Y-67948761D02*
X113956857Y-68482095D01*
X113956857Y-68024952D02*
X113994952Y-67986857D01*
X113994952Y-67986857D02*
X114071142Y-67948761D01*
X114071142Y-67948761D02*
X114185428Y-67948761D01*
X114185428Y-67948761D02*
X114261619Y-67986857D01*
X114261619Y-67986857D02*
X114299714Y-68063047D01*
X114299714Y-68063047D02*
X114299714Y-68482095D01*
X114680667Y-68482095D02*
X114680667Y-67682095D01*
X114756857Y-68177333D02*
X114985429Y-68482095D01*
X114985429Y-67948761D02*
X114680667Y-68253523D01*
X116394953Y-68405904D02*
X116356857Y-68444000D01*
X116356857Y-68444000D02*
X116242572Y-68482095D01*
X116242572Y-68482095D02*
X116166381Y-68482095D01*
X116166381Y-68482095D02*
X116052095Y-68444000D01*
X116052095Y-68444000D02*
X115975905Y-68367809D01*
X115975905Y-68367809D02*
X115937810Y-68291619D01*
X115937810Y-68291619D02*
X115899714Y-68139238D01*
X115899714Y-68139238D02*
X115899714Y-68024952D01*
X115899714Y-68024952D02*
X115937810Y-67872571D01*
X115937810Y-67872571D02*
X115975905Y-67796380D01*
X115975905Y-67796380D02*
X116052095Y-67720190D01*
X116052095Y-67720190D02*
X116166381Y-67682095D01*
X116166381Y-67682095D02*
X116242572Y-67682095D01*
X116242572Y-67682095D02*
X116356857Y-67720190D01*
X116356857Y-67720190D02*
X116394953Y-67758285D01*
X116852095Y-68482095D02*
X116775905Y-68444000D01*
X116775905Y-68444000D02*
X116737810Y-68405904D01*
X116737810Y-68405904D02*
X116699714Y-68329714D01*
X116699714Y-68329714D02*
X116699714Y-68101142D01*
X116699714Y-68101142D02*
X116737810Y-68024952D01*
X116737810Y-68024952D02*
X116775905Y-67986857D01*
X116775905Y-67986857D02*
X116852095Y-67948761D01*
X116852095Y-67948761D02*
X116966381Y-67948761D01*
X116966381Y-67948761D02*
X117042572Y-67986857D01*
X117042572Y-67986857D02*
X117080667Y-68024952D01*
X117080667Y-68024952D02*
X117118762Y-68101142D01*
X117118762Y-68101142D02*
X117118762Y-68329714D01*
X117118762Y-68329714D02*
X117080667Y-68405904D01*
X117080667Y-68405904D02*
X117042572Y-68444000D01*
X117042572Y-68444000D02*
X116966381Y-68482095D01*
X116966381Y-68482095D02*
X116852095Y-68482095D01*
X117461620Y-67948761D02*
X117461620Y-68482095D01*
X117461620Y-68024952D02*
X117499715Y-67986857D01*
X117499715Y-67986857D02*
X117575905Y-67948761D01*
X117575905Y-67948761D02*
X117690191Y-67948761D01*
X117690191Y-67948761D02*
X117766382Y-67986857D01*
X117766382Y-67986857D02*
X117804477Y-68063047D01*
X117804477Y-68063047D02*
X117804477Y-68482095D01*
X118109239Y-67948761D02*
X118299715Y-68482095D01*
X118299715Y-68482095D02*
X118490192Y-67948761D01*
X119099716Y-68444000D02*
X119023525Y-68482095D01*
X119023525Y-68482095D02*
X118871144Y-68482095D01*
X118871144Y-68482095D02*
X118794954Y-68444000D01*
X118794954Y-68444000D02*
X118756858Y-68367809D01*
X118756858Y-68367809D02*
X118756858Y-68063047D01*
X118756858Y-68063047D02*
X118794954Y-67986857D01*
X118794954Y-67986857D02*
X118871144Y-67948761D01*
X118871144Y-67948761D02*
X119023525Y-67948761D01*
X119023525Y-67948761D02*
X119099716Y-67986857D01*
X119099716Y-67986857D02*
X119137811Y-68063047D01*
X119137811Y-68063047D02*
X119137811Y-68139238D01*
X119137811Y-68139238D02*
X118756858Y-68215428D01*
X119480668Y-68482095D02*
X119480668Y-67948761D01*
X119480668Y-68101142D02*
X119518763Y-68024952D01*
X119518763Y-68024952D02*
X119556858Y-67986857D01*
X119556858Y-67986857D02*
X119633049Y-67948761D01*
X119633049Y-67948761D02*
X119709239Y-67948761D01*
X119861620Y-67948761D02*
X120166382Y-67948761D01*
X119975906Y-67682095D02*
X119975906Y-68367809D01*
X119975906Y-68367809D02*
X120014001Y-68444000D01*
X120014001Y-68444000D02*
X120090191Y-68482095D01*
X120090191Y-68482095D02*
X120166382Y-68482095D01*
X120737811Y-68444000D02*
X120661620Y-68482095D01*
X120661620Y-68482095D02*
X120509239Y-68482095D01*
X120509239Y-68482095D02*
X120433049Y-68444000D01*
X120433049Y-68444000D02*
X120394953Y-68367809D01*
X120394953Y-68367809D02*
X120394953Y-68063047D01*
X120394953Y-68063047D02*
X120433049Y-67986857D01*
X120433049Y-67986857D02*
X120509239Y-67948761D01*
X120509239Y-67948761D02*
X120661620Y-67948761D01*
X120661620Y-67948761D02*
X120737811Y-67986857D01*
X120737811Y-67986857D02*
X120775906Y-68063047D01*
X120775906Y-68063047D02*
X120775906Y-68139238D01*
X120775906Y-68139238D02*
X120394953Y-68215428D01*
X121118763Y-68482095D02*
X121118763Y-67948761D01*
X121118763Y-68101142D02*
X121156858Y-68024952D01*
X121156858Y-68024952D02*
X121194953Y-67986857D01*
X121194953Y-67986857D02*
X121271144Y-67948761D01*
X121271144Y-67948761D02*
X121347334Y-67948761D01*
X122452096Y-68786857D02*
X122414001Y-68748761D01*
X122414001Y-68748761D02*
X122337810Y-68634476D01*
X122337810Y-68634476D02*
X122299715Y-68558285D01*
X122299715Y-68558285D02*
X122261620Y-68444000D01*
X122261620Y-68444000D02*
X122223525Y-68253523D01*
X122223525Y-68253523D02*
X122223525Y-68101142D01*
X122223525Y-68101142D02*
X122261620Y-67910666D01*
X122261620Y-67910666D02*
X122299715Y-67796380D01*
X122299715Y-67796380D02*
X122337810Y-67720190D01*
X122337810Y-67720190D02*
X122414001Y-67605904D01*
X122414001Y-67605904D02*
X122452096Y-67567809D01*
X122756858Y-68482095D02*
X122756858Y-67948761D01*
X122756858Y-68101142D02*
X122794953Y-68024952D01*
X122794953Y-68024952D02*
X122833048Y-67986857D01*
X122833048Y-67986857D02*
X122909239Y-67948761D01*
X122909239Y-67948761D02*
X122985429Y-67948761D01*
X123556858Y-68444000D02*
X123480667Y-68482095D01*
X123480667Y-68482095D02*
X123328286Y-68482095D01*
X123328286Y-68482095D02*
X123252096Y-68444000D01*
X123252096Y-68444000D02*
X123214000Y-68367809D01*
X123214000Y-68367809D02*
X123214000Y-68063047D01*
X123214000Y-68063047D02*
X123252096Y-67986857D01*
X123252096Y-67986857D02*
X123328286Y-67948761D01*
X123328286Y-67948761D02*
X123480667Y-67948761D01*
X123480667Y-67948761D02*
X123556858Y-67986857D01*
X123556858Y-67986857D02*
X123594953Y-68063047D01*
X123594953Y-68063047D02*
X123594953Y-68139238D01*
X123594953Y-68139238D02*
X123214000Y-68215428D01*
X123861619Y-67948761D02*
X124052095Y-68482095D01*
X124052095Y-68482095D02*
X124242572Y-67948761D01*
X125118762Y-67758285D02*
X125156858Y-67720190D01*
X125156858Y-67720190D02*
X125233048Y-67682095D01*
X125233048Y-67682095D02*
X125423524Y-67682095D01*
X125423524Y-67682095D02*
X125499715Y-67720190D01*
X125499715Y-67720190D02*
X125537810Y-67758285D01*
X125537810Y-67758285D02*
X125575905Y-67834476D01*
X125575905Y-67834476D02*
X125575905Y-67910666D01*
X125575905Y-67910666D02*
X125537810Y-68024952D01*
X125537810Y-68024952D02*
X125080667Y-68482095D01*
X125080667Y-68482095D02*
X125575905Y-68482095D01*
X125842572Y-68786857D02*
X125880667Y-68748761D01*
X125880667Y-68748761D02*
X125956858Y-68634476D01*
X125956858Y-68634476D02*
X125994953Y-68558285D01*
X125994953Y-68558285D02*
X126033048Y-68444000D01*
X126033048Y-68444000D02*
X126071144Y-68253523D01*
X126071144Y-68253523D02*
X126071144Y-68101142D01*
X126071144Y-68101142D02*
X126033048Y-67910666D01*
X126033048Y-67910666D02*
X125994953Y-67796380D01*
X125994953Y-67796380D02*
X125956858Y-67720190D01*
X125956858Y-67720190D02*
X125880667Y-67605904D01*
X125880667Y-67605904D02*
X125842572Y-67567809D01*
D12*
D13*
G36*
X102839859Y-82041356D02*
G01*
X102872486Y-82042653D01*
X102904044Y-82044814D01*
X102934532Y-82047839D01*
X102963950Y-82051729D01*
X102992299Y-82056483D01*
X103019578Y-82062102D01*
X103045787Y-82068585D01*
X103070926Y-82075932D01*
X103094995Y-82084144D01*
X103117995Y-82093220D01*
X103139925Y-82103160D01*
X103160785Y-82113965D01*
X103180576Y-82125634D01*
X103199296Y-82138168D01*
X103216947Y-82151566D01*
X103233529Y-82165829D01*
X103249040Y-82180955D01*
X103263482Y-82196947D01*
X103276854Y-82213802D01*
X103289156Y-82231522D01*
X103300388Y-82250107D01*
X103310551Y-82269555D01*
X103319644Y-82289869D01*
X103327667Y-82311046D01*
X103334620Y-82333088D01*
X103340504Y-82355995D01*
X103345318Y-82379765D01*
X103349062Y-82404400D01*
X103351736Y-82429900D01*
X103353341Y-82456264D01*
X103353876Y-82483492D01*
X103353591Y-82502418D01*
X103352735Y-82520956D01*
X103351310Y-82539106D01*
X103349314Y-82556868D01*
X103346747Y-82574242D01*
X103343611Y-82591229D01*
X103339904Y-82607828D01*
X103335626Y-82624039D01*
X103330779Y-82639862D01*
X103325361Y-82655297D01*
X103319373Y-82670344D01*
X103312815Y-82685004D01*
X103305686Y-82699276D01*
X103297987Y-82713160D01*
X103289718Y-82726656D01*
X103280878Y-82739764D01*
X103271468Y-82752484D01*
X103261488Y-82764817D01*
X103250937Y-82776762D01*
X103239816Y-82788319D01*
X103228125Y-82799488D01*
X103215864Y-82810269D01*
X103203032Y-82820663D01*
X103189630Y-82830668D01*
X103175658Y-82840286D01*
X103161115Y-82849516D01*
X103146003Y-82858358D01*
X103130319Y-82866812D01*
X103114066Y-82874879D01*
X103097242Y-82882557D01*
X103079848Y-82889848D01*
X103061884Y-82896751D01*
X103474043Y-83565000D01*
X103221252Y-83565000D01*
X102860383Y-82955003D01*
X102642763Y-82955003D01*
X102642763Y-83565000D01*
X102426608Y-83565000D01*
X102426608Y-82228136D01*
X102642763Y-82228136D01*
X102642763Y-82767791D01*
X102799933Y-82767791D01*
X102821095Y-82767535D01*
X102841533Y-82766766D01*
X102861246Y-82765485D01*
X102880236Y-82763692D01*
X102898501Y-82761387D01*
X102916042Y-82758569D01*
X102932859Y-82755239D01*
X102948952Y-82751396D01*
X102964321Y-82747041D01*
X102978965Y-82742174D01*
X102992886Y-82736794D01*
X103012408Y-82727764D01*
X103030302Y-82717582D01*
X103046566Y-82706246D01*
X103051625Y-82702212D01*
X103065899Y-82689223D01*
X103078768Y-82674850D01*
X103090233Y-82659093D01*
X103100295Y-82641950D01*
X103108952Y-82623424D01*
X103116206Y-82603512D01*
X103122055Y-82582216D01*
X103125175Y-82567250D01*
X103127671Y-82551668D01*
X103129543Y-82535470D01*
X103130791Y-82518658D01*
X103131415Y-82501230D01*
X103131493Y-82492285D01*
X103131185Y-82474964D01*
X103130262Y-82458265D01*
X103128724Y-82442186D01*
X103126570Y-82426729D01*
X103123801Y-82411892D01*
X103118493Y-82390802D01*
X103111801Y-82371110D01*
X103103724Y-82352815D01*
X103094263Y-82335917D01*
X103083417Y-82320417D01*
X103071186Y-82306315D01*
X103057571Y-82293610D01*
X103052725Y-82289685D01*
X103037135Y-82278686D01*
X103019769Y-82268768D01*
X103000625Y-82259933D01*
X102986875Y-82254643D01*
X102972335Y-82249835D01*
X102957005Y-82245507D01*
X102940885Y-82241660D01*
X102923975Y-82238294D01*
X102906275Y-82235409D01*
X102887785Y-82233005D01*
X102868505Y-82231082D01*
X102848435Y-82229639D01*
X102827575Y-82228677D01*
X102805925Y-82228196D01*
X102794804Y-82228136D01*
X102642763Y-82228136D01*
X102426608Y-82228136D01*
X102426608Y-82040924D01*
X102806161Y-82040924D01*
X102839859Y-82041356D01*
G37*
G36*
X104184897Y-82393189D02*
G01*
X104211781Y-82394855D01*
X104237963Y-82397631D01*
X104263444Y-82401518D01*
X104288224Y-82406516D01*
X104312302Y-82412624D01*
X104335679Y-82419842D01*
X104358355Y-82428171D01*
X104380330Y-82437611D01*
X104401603Y-82448161D01*
X104422176Y-82459822D01*
X104442047Y-82472593D01*
X104461216Y-82486475D01*
X104479685Y-82501467D01*
X104497452Y-82517570D01*
X104514518Y-82534783D01*
X104530711Y-82552915D01*
X104545859Y-82571775D01*
X104559963Y-82591361D01*
X104573022Y-82611674D01*
X104585036Y-82632714D01*
X104596005Y-82654481D01*
X104605930Y-82676975D01*
X104614810Y-82700197D01*
X104622646Y-82724145D01*
X104629436Y-82748820D01*
X104635182Y-82774222D01*
X104639883Y-82800351D01*
X104643540Y-82827208D01*
X104646152Y-82854791D01*
X104647719Y-82883101D01*
X104648241Y-82912138D01*
X104648241Y-83040732D01*
X103851032Y-83040732D01*
X103851810Y-83062912D01*
X103853228Y-83084387D01*
X103855285Y-83105158D01*
X103857982Y-83125225D01*
X103861318Y-83144588D01*
X103865295Y-83163247D01*
X103869911Y-83181201D01*
X103875167Y-83198452D01*
X103881062Y-83214999D01*
X103887597Y-83230841D01*
X103894772Y-83245979D01*
X103902587Y-83260413D01*
X103911041Y-83274143D01*
X103920135Y-83287169D01*
X103929869Y-83299491D01*
X103940242Y-83311109D01*
X103951255Y-83322023D01*
X103962908Y-83332232D01*
X103975200Y-83341738D01*
X103988133Y-83350539D01*
X104001705Y-83358636D01*
X104015916Y-83366029D01*
X104030768Y-83372718D01*
X104046259Y-83378703D01*
X104062389Y-83383984D01*
X104079160Y-83388561D01*
X104096570Y-83392433D01*
X104114620Y-83395602D01*
X104133310Y-83398066D01*
X104152639Y-83399826D01*
X104172608Y-83400883D01*
X104193217Y-83401235D01*
X104218022Y-83400904D01*
X104242796Y-83399912D01*
X104267538Y-83398259D01*
X104292249Y-83395945D01*
X104316929Y-83392970D01*
X104341577Y-83389334D01*
X104366193Y-83385036D01*
X104390778Y-83380077D01*
X104415332Y-83374457D01*
X104439854Y-83368176D01*
X104464345Y-83361234D01*
X104488804Y-83353630D01*
X104513231Y-83345366D01*
X104537628Y-83336440D01*
X104561992Y-83326853D01*
X104586325Y-83316605D01*
X104586325Y-83507114D01*
X104563691Y-83516963D01*
X104540850Y-83526176D01*
X104517804Y-83534754D01*
X104494551Y-83542697D01*
X104471092Y-83550004D01*
X104447428Y-83556676D01*
X104423557Y-83562713D01*
X104399480Y-83568114D01*
X104375197Y-83572879D01*
X104350707Y-83577009D01*
X104326012Y-83580504D01*
X104301111Y-83583364D01*
X104276003Y-83585587D01*
X104250690Y-83587176D01*
X104225170Y-83588129D01*
X104199445Y-83588447D01*
X104183470Y-83588293D01*
X104167696Y-83587831D01*
X104152120Y-83587062D01*
X104136745Y-83585985D01*
X104121569Y-83584601D01*
X104106593Y-83582908D01*
X104091816Y-83580908D01*
X104077239Y-83578601D01*
X104048684Y-83573062D01*
X104020928Y-83566293D01*
X103993970Y-83558293D01*
X103967811Y-83549063D01*
X103942450Y-83538601D01*
X103917888Y-83526909D01*
X103894124Y-83513986D01*
X103871159Y-83499832D01*
X103848993Y-83484448D01*
X103827625Y-83467833D01*
X103807056Y-83449987D01*
X103787285Y-83430910D01*
X103768519Y-83410760D01*
X103750963Y-83389694D01*
X103734619Y-83367712D01*
X103719485Y-83344815D01*
X103705561Y-83321001D01*
X103692849Y-83296271D01*
X103681347Y-83270626D01*
X103671056Y-83244064D01*
X103661975Y-83216587D01*
X103657889Y-83202505D01*
X103654106Y-83188194D01*
X103650625Y-83173654D01*
X103647447Y-83158885D01*
X103644571Y-83143887D01*
X103641999Y-83128660D01*
X103639728Y-83113204D01*
X103637761Y-83097519D01*
X103636096Y-83081605D01*
X103634734Y-83065462D01*
X103633675Y-83049090D01*
X103632918Y-83032489D01*
X103632464Y-83015659D01*
X103632313Y-82998600D01*
X103632452Y-82981333D01*
X103632870Y-82964288D01*
X103633565Y-82947467D01*
X103634540Y-82930869D01*
X103635792Y-82914494D01*
X103637323Y-82898342D01*
X103639132Y-82882414D01*
X103641220Y-82866709D01*
X103642004Y-82861580D01*
X103855795Y-82861580D01*
X104421461Y-82861580D01*
X104421199Y-82843751D01*
X104420412Y-82826488D01*
X104419101Y-82809791D01*
X104417265Y-82793660D01*
X104414905Y-82778094D01*
X104412020Y-82763095D01*
X104408611Y-82748662D01*
X104400219Y-82721494D01*
X104389729Y-82696590D01*
X104377141Y-82673950D01*
X104362455Y-82653574D01*
X104345671Y-82635461D01*
X104326789Y-82619613D01*
X104305809Y-82606029D01*
X104282731Y-82594709D01*
X104257555Y-82585653D01*
X104230280Y-82578861D01*
X104200908Y-82574333D01*
X104185436Y-82572918D01*
X104169438Y-82572069D01*
X104152916Y-82571786D01*
X104136123Y-82572069D01*
X104119813Y-82572918D01*
X104103989Y-82574333D01*
X104088648Y-82576314D01*
X104073792Y-82578861D01*
X104059421Y-82581974D01*
X104032131Y-82589898D01*
X104006779Y-82600086D01*
X103983364Y-82612538D01*
X103961888Y-82627254D01*
X103942349Y-82644234D01*
X103924747Y-82663479D01*
X103909084Y-82684987D01*
X103895358Y-82708759D01*
X103883570Y-82734795D01*
X103878403Y-82748662D01*
X103873720Y-82763095D01*
X103869521Y-82778094D01*
X103865807Y-82793660D01*
X103862577Y-82809791D01*
X103859832Y-82826488D01*
X103857571Y-82843751D01*
X103855795Y-82861580D01*
X103642004Y-82861580D01*
X103643586Y-82851227D01*
X103646230Y-82835969D01*
X103649153Y-82820934D01*
X103652354Y-82806122D01*
X103655833Y-82791533D01*
X103659591Y-82777167D01*
X103663627Y-82763025D01*
X103672535Y-82735411D01*
X103682555Y-82708689D01*
X103693689Y-82682860D01*
X103705937Y-82657924D01*
X103719298Y-82633882D01*
X103733772Y-82610732D01*
X103749359Y-82588476D01*
X103766060Y-82567112D01*
X103774829Y-82556765D01*
X103793067Y-82536890D01*
X103812060Y-82518297D01*
X103831810Y-82500986D01*
X103852315Y-82484958D01*
X103873575Y-82470211D01*
X103895591Y-82456748D01*
X103918363Y-82444566D01*
X103941891Y-82433667D01*
X103966174Y-82424050D01*
X103991212Y-82415715D01*
X104017007Y-82408662D01*
X104043557Y-82402892D01*
X104070862Y-82398404D01*
X104098924Y-82395198D01*
X104127740Y-82393275D01*
X104142432Y-82392794D01*
X104157313Y-82392634D01*
X104184897Y-82393189D01*
G37*
G36*
X104964780Y-83512609D02*
G01*
X104964780Y-83316605D01*
X104991302Y-83327829D01*
X105017565Y-83338329D01*
X105043567Y-83348105D01*
X105069308Y-83357156D01*
X105094789Y-83365484D01*
X105120009Y-83373088D01*
X105144969Y-83379967D01*
X105169669Y-83386122D01*
X105194108Y-83391553D01*
X105218287Y-83396260D01*
X105242205Y-83400243D01*
X105265862Y-83403502D01*
X105289260Y-83406036D01*
X105312396Y-83407846D01*
X105335273Y-83408933D01*
X105357889Y-83409295D01*
X105374591Y-83409145D01*
X105390763Y-83408696D01*
X105406404Y-83407949D01*
X105421516Y-83406902D01*
X105450148Y-83403911D01*
X105476659Y-83399723D01*
X105501050Y-83394340D01*
X105523319Y-83387759D01*
X105543468Y-83379983D01*
X105561495Y-83371010D01*
X105577402Y-83360840D01*
X105591188Y-83349474D01*
X105602853Y-83336912D01*
X105612397Y-83323153D01*
X105619820Y-83308198D01*
X105625123Y-83292047D01*
X105628304Y-83274699D01*
X105629364Y-83256154D01*
X105628202Y-83239858D01*
X105624713Y-83224169D01*
X105618899Y-83209089D01*
X105610760Y-83194617D01*
X105600295Y-83180753D01*
X105587504Y-83167497D01*
X105581737Y-83162365D01*
X105567758Y-83151729D01*
X105554554Y-83143256D01*
X105539018Y-83134358D01*
X105521152Y-83125035D01*
X105507945Y-83118584D01*
X105493703Y-83111944D01*
X105478425Y-83105114D01*
X105462110Y-83098096D01*
X105444759Y-83090889D01*
X105426372Y-83083493D01*
X105406949Y-83075908D01*
X105386490Y-83068134D01*
X105364995Y-83060172D01*
X105353859Y-83056120D01*
X105338829Y-83050454D01*
X105324147Y-83044815D01*
X105309814Y-83039203D01*
X105295830Y-83033617D01*
X105282194Y-83028057D01*
X105255967Y-83017018D01*
X105231135Y-83006084D01*
X105207696Y-82995256D01*
X105185651Y-82984534D01*
X105165000Y-82973918D01*
X105145743Y-82963408D01*
X105127880Y-82953004D01*
X105111411Y-82942706D01*
X105096336Y-82932513D01*
X105082654Y-82922427D01*
X105070367Y-82912446D01*
X105059473Y-82902572D01*
X105045746Y-82887958D01*
X105034223Y-82873144D01*
X105023833Y-82857828D01*
X105014577Y-82842009D01*
X105006454Y-82825688D01*
X104999464Y-82808864D01*
X104993608Y-82791539D01*
X104988885Y-82773711D01*
X104985296Y-82755380D01*
X104982840Y-82736548D01*
X104981518Y-82717213D01*
X104981266Y-82704043D01*
X104981730Y-82686020D01*
X104983121Y-82668495D01*
X104985439Y-82651467D01*
X104988685Y-82634938D01*
X104992858Y-82618907D01*
X104997959Y-82603373D01*
X105003986Y-82588338D01*
X105010942Y-82573801D01*
X105018824Y-82559762D01*
X105027634Y-82546221D01*
X105037371Y-82533177D01*
X105048036Y-82520632D01*
X105059628Y-82508585D01*
X105072147Y-82497036D01*
X105085594Y-82485985D01*
X105099968Y-82475432D01*
X105115194Y-82465406D01*
X105131103Y-82456026D01*
X105147697Y-82447294D01*
X105164975Y-82439208D01*
X105182937Y-82431769D01*
X105201583Y-82424977D01*
X105220913Y-82418832D01*
X105240927Y-82413333D01*
X105261625Y-82408482D01*
X105283007Y-82404277D01*
X105305073Y-82400720D01*
X105327824Y-82397809D01*
X105351258Y-82395545D01*
X105375377Y-82393928D01*
X105400179Y-82392957D01*
X105425666Y-82392634D01*
X105451424Y-82392953D01*
X105477043Y-82393910D01*
X105502521Y-82395506D01*
X105527859Y-82397740D01*
X105553056Y-82400612D01*
X105578114Y-82404123D01*
X105603031Y-82408272D01*
X105627807Y-82413059D01*
X105652444Y-82418484D01*
X105676940Y-82424548D01*
X105701296Y-82431249D01*
X105725512Y-82438590D01*
X105749588Y-82446568D01*
X105773523Y-82455185D01*
X105797318Y-82464440D01*
X105820973Y-82474333D01*
X105750631Y-82649089D01*
X105726309Y-82639728D01*
X105702437Y-82630971D01*
X105679014Y-82622818D01*
X105656040Y-82615269D01*
X105633516Y-82608324D01*
X105611441Y-82601982D01*
X105589816Y-82596245D01*
X105568640Y-82591112D01*
X105547913Y-82586582D01*
X105527635Y-82582657D01*
X105507807Y-82579335D01*
X105488429Y-82576617D01*
X105469499Y-82574504D01*
X105451019Y-82572994D01*
X105432989Y-82572088D01*
X105415408Y-82571786D01*
X105387369Y-82572275D01*
X105361140Y-82573744D01*
X105336720Y-82576191D01*
X105314108Y-82579617D01*
X105293305Y-82584022D01*
X105274312Y-82589406D01*
X105257127Y-82595769D01*
X105241751Y-82603110D01*
X105228184Y-82611431D01*
X105216426Y-82620730D01*
X105202181Y-82636514D01*
X105192006Y-82654501D01*
X105185901Y-82674691D01*
X105184092Y-82689374D01*
X105183866Y-82697083D01*
X105185055Y-82714310D01*
X105188624Y-82730499D01*
X105194572Y-82745651D01*
X105202899Y-82759765D01*
X105213606Y-82772842D01*
X105226691Y-82784881D01*
X105232592Y-82789406D01*
X105247006Y-82798686D01*
X105260627Y-82806284D01*
X105276656Y-82814429D01*
X105295094Y-82823122D01*
X105308723Y-82829222D01*
X105323424Y-82835564D01*
X105339195Y-82842150D01*
X105356036Y-82848980D01*
X105373948Y-82856052D01*
X105392930Y-82863368D01*
X105412983Y-82870927D01*
X105434106Y-82878729D01*
X105456300Y-82886775D01*
X105467798Y-82890889D01*
X105494750Y-82900960D01*
X105520560Y-82911022D01*
X105545228Y-82921076D01*
X105568754Y-82931121D01*
X105591138Y-82941157D01*
X105612380Y-82951185D01*
X105632480Y-82961204D01*
X105651438Y-82971215D01*
X105669254Y-82981217D01*
X105685928Y-82991210D01*
X105701460Y-83001195D01*
X105715849Y-83011171D01*
X105729097Y-83021139D01*
X105741203Y-83031098D01*
X105752167Y-83041049D01*
X105761988Y-83050990D01*
X105775279Y-83066153D01*
X105787263Y-83081967D01*
X105797940Y-83098431D01*
X105807309Y-83115545D01*
X105815371Y-83133310D01*
X105822125Y-83151725D01*
X105827572Y-83170790D01*
X105831712Y-83190507D01*
X105834545Y-83210873D01*
X105836070Y-83231890D01*
X105836360Y-83246263D01*
X105835874Y-83266006D01*
X105834414Y-83285212D01*
X105831981Y-83303879D01*
X105828575Y-83322008D01*
X105824196Y-83339600D01*
X105818843Y-83356653D01*
X105812518Y-83373168D01*
X105805219Y-83389145D01*
X105796948Y-83404583D01*
X105787703Y-83419484D01*
X105777484Y-83433847D01*
X105766293Y-83447671D01*
X105754129Y-83460958D01*
X105740991Y-83473706D01*
X105726880Y-83485916D01*
X105711796Y-83497588D01*
X105695837Y-83508591D01*
X105679098Y-83518883D01*
X105661582Y-83528466D01*
X105643286Y-83537339D01*
X105624212Y-83545502D01*
X105604360Y-83552955D01*
X105583729Y-83559699D01*
X105562320Y-83565732D01*
X105540132Y-83571056D01*
X105517165Y-83575670D01*
X105493420Y-83579574D01*
X105468897Y-83582768D01*
X105443595Y-83585253D01*
X105417514Y-83587027D01*
X105390655Y-83588092D01*
X105363018Y-83588447D01*
X105346968Y-83588373D01*
X105331151Y-83588151D01*
X105315567Y-83587780D01*
X105300215Y-83587262D01*
X105285095Y-83586595D01*
X105270209Y-83585781D01*
X105255554Y-83584818D01*
X105226944Y-83582448D01*
X105199263Y-83579486D01*
X105172513Y-83575931D01*
X105146693Y-83571783D01*
X105121803Y-83567043D01*
X105097843Y-83561711D01*
X105074814Y-83555786D01*
X105052715Y-83549269D01*
X105031546Y-83542159D01*
X105011307Y-83534457D01*
X104991998Y-83526162D01*
X104973620Y-83517275D01*
X104964780Y-83512609D01*
G37*
G36*
X106705484Y-82393189D02*
G01*
X106732367Y-82394855D01*
X106758549Y-82397631D01*
X106784030Y-82401518D01*
X106808810Y-82406516D01*
X106832888Y-82412624D01*
X106856265Y-82419842D01*
X106878941Y-82428171D01*
X106900916Y-82437611D01*
X106922190Y-82448161D01*
X106942762Y-82459822D01*
X106962633Y-82472593D01*
X106981802Y-82486475D01*
X107000271Y-82501467D01*
X107018038Y-82517570D01*
X107035104Y-82534783D01*
X107051297Y-82552915D01*
X107066445Y-82571775D01*
X107080549Y-82591361D01*
X107093608Y-82611674D01*
X107105622Y-82632714D01*
X107116592Y-82654481D01*
X107126516Y-82676975D01*
X107135396Y-82700197D01*
X107143232Y-82724145D01*
X107150022Y-82748820D01*
X107155768Y-82774222D01*
X107160469Y-82800351D01*
X107164126Y-82827208D01*
X107166738Y-82854791D01*
X107168305Y-82883101D01*
X107168827Y-82912138D01*
X107168827Y-83040732D01*
X106371618Y-83040732D01*
X106372396Y-83062912D01*
X106373814Y-83084387D01*
X106375871Y-83105158D01*
X106378568Y-83125225D01*
X106381905Y-83144588D01*
X106385881Y-83163247D01*
X106390497Y-83181201D01*
X106395753Y-83198452D01*
X106401648Y-83214999D01*
X106408183Y-83230841D01*
X106415358Y-83245979D01*
X106423173Y-83260413D01*
X106431627Y-83274143D01*
X106440721Y-83287169D01*
X106450455Y-83299491D01*
X106460828Y-83311109D01*
X106471841Y-83322023D01*
X106483494Y-83332232D01*
X106495787Y-83341738D01*
X106508719Y-83350539D01*
X106522291Y-83358636D01*
X106536502Y-83366029D01*
X106551354Y-83372718D01*
X106566845Y-83378703D01*
X106582976Y-83383984D01*
X106599746Y-83388561D01*
X106617156Y-83392433D01*
X106635206Y-83395602D01*
X106653896Y-83398066D01*
X106673225Y-83399826D01*
X106693194Y-83400883D01*
X106713803Y-83401235D01*
X106738608Y-83400904D01*
X106763382Y-83399912D01*
X106788125Y-83398259D01*
X106812836Y-83395945D01*
X106837515Y-83392970D01*
X106862163Y-83389334D01*
X106886780Y-83385036D01*
X106911365Y-83380077D01*
X106935918Y-83374457D01*
X106960440Y-83368176D01*
X106984931Y-83361234D01*
X107009390Y-83353630D01*
X107033818Y-83345366D01*
X107058214Y-83336440D01*
X107082578Y-83326853D01*
X107106912Y-83316605D01*
X107106912Y-83507114D01*
X107084277Y-83516963D01*
X107061437Y-83526176D01*
X107038390Y-83534754D01*
X107015137Y-83542697D01*
X106991679Y-83550004D01*
X106968014Y-83556676D01*
X106944143Y-83562713D01*
X106920066Y-83568114D01*
X106895783Y-83572879D01*
X106871294Y-83577009D01*
X106846598Y-83580504D01*
X106821697Y-83583364D01*
X106796590Y-83585587D01*
X106771276Y-83587176D01*
X106745757Y-83588129D01*
X106720031Y-83588447D01*
X106704056Y-83588293D01*
X106688282Y-83587831D01*
X106672707Y-83587062D01*
X106657331Y-83585985D01*
X106642155Y-83584601D01*
X106627179Y-83582908D01*
X106612402Y-83580908D01*
X106597826Y-83578601D01*
X106569271Y-83573062D01*
X106541514Y-83566293D01*
X106514556Y-83558293D01*
X106488397Y-83549063D01*
X106463036Y-83538601D01*
X106438474Y-83526909D01*
X106414711Y-83513986D01*
X106391746Y-83499832D01*
X106369579Y-83484448D01*
X106348211Y-83467833D01*
X106327642Y-83449987D01*
X106307871Y-83430910D01*
X106289105Y-83410760D01*
X106271550Y-83389694D01*
X106255205Y-83367712D01*
X106240071Y-83344815D01*
X106226148Y-83321001D01*
X106213435Y-83296271D01*
X106201933Y-83270626D01*
X106191642Y-83244064D01*
X106182562Y-83216587D01*
X106178475Y-83202505D01*
X106174692Y-83188194D01*
X106171211Y-83173654D01*
X106168033Y-83158885D01*
X106165158Y-83143887D01*
X106162585Y-83128660D01*
X106160315Y-83113204D01*
X106158347Y-83097519D01*
X106156683Y-83081605D01*
X106155320Y-83065462D01*
X106154261Y-83049090D01*
X106153504Y-83032489D01*
X106153050Y-83015659D01*
X106152899Y-82998600D01*
X106153038Y-82981333D01*
X106153456Y-82964288D01*
X106154152Y-82947467D01*
X106155126Y-82930869D01*
X106156378Y-82914494D01*
X106157909Y-82898342D01*
X106159719Y-82882414D01*
X106161806Y-82866709D01*
X106162590Y-82861580D01*
X106376381Y-82861580D01*
X106942048Y-82861580D01*
X106941785Y-82843751D01*
X106940999Y-82826488D01*
X106939687Y-82809791D01*
X106937852Y-82793660D01*
X106935491Y-82778094D01*
X106932607Y-82763095D01*
X106929197Y-82748662D01*
X106920805Y-82721494D01*
X106910315Y-82696590D01*
X106897727Y-82673950D01*
X106883041Y-82653574D01*
X106866257Y-82635461D01*
X106847375Y-82619613D01*
X106826395Y-82606029D01*
X106803317Y-82594709D01*
X106778141Y-82585653D01*
X106750867Y-82578861D01*
X106721495Y-82574333D01*
X106706022Y-82572918D01*
X106690024Y-82572069D01*
X106673503Y-82571786D01*
X106656709Y-82572069D01*
X106640400Y-82572918D01*
X106624575Y-82574333D01*
X106609234Y-82576314D01*
X106594378Y-82578861D01*
X106580007Y-82581974D01*
X106552717Y-82589898D01*
X106527365Y-82600086D01*
X106503950Y-82612538D01*
X106482474Y-82627254D01*
X106462935Y-82644234D01*
X106445334Y-82663479D01*
X106429670Y-82684987D01*
X106415944Y-82708759D01*
X106404156Y-82734795D01*
X106398989Y-82748662D01*
X106394306Y-82763095D01*
X106390107Y-82778094D01*
X106386393Y-82793660D01*
X106383164Y-82809791D01*
X106380418Y-82826488D01*
X106378158Y-82843751D01*
X106376381Y-82861580D01*
X106162590Y-82861580D01*
X106164172Y-82851227D01*
X106166817Y-82835969D01*
X106169739Y-82820934D01*
X106172940Y-82806122D01*
X106176420Y-82791533D01*
X106180177Y-82777167D01*
X106184213Y-82763025D01*
X106193121Y-82735411D01*
X106203141Y-82708689D01*
X106214275Y-82682860D01*
X106226523Y-82657924D01*
X106239884Y-82633882D01*
X106254358Y-82610732D01*
X106269946Y-82588476D01*
X106286647Y-82567112D01*
X106295415Y-82556765D01*
X106313653Y-82536890D01*
X106332646Y-82518297D01*
X106352396Y-82500986D01*
X106372901Y-82484958D01*
X106394161Y-82470211D01*
X106416178Y-82456748D01*
X106438949Y-82444566D01*
X106462477Y-82433667D01*
X106486760Y-82424050D01*
X106511799Y-82415715D01*
X106537593Y-82408662D01*
X106564143Y-82402892D01*
X106591448Y-82398404D01*
X106619510Y-82395198D01*
X106648327Y-82393275D01*
X106663018Y-82392794D01*
X106677899Y-82392634D01*
X106705484Y-82393189D01*
G37*
G36*
X108350718Y-83388412D02*
G01*
X108350718Y-83552909D01*
X108332742Y-83557213D01*
X108314900Y-83561239D01*
X108297193Y-83564987D01*
X108279621Y-83568457D01*
X108262183Y-83571650D01*
X108244879Y-83574565D01*
X108227710Y-83577203D01*
X108210676Y-83579562D01*
X108193776Y-83581645D01*
X108177010Y-83583449D01*
X108160379Y-83584976D01*
X108143883Y-83586226D01*
X108127521Y-83587197D01*
X108111293Y-83587892D01*
X108095201Y-83588308D01*
X108079242Y-83588447D01*
X108055575Y-83588092D01*
X108032660Y-83587029D01*
X108010495Y-83585256D01*
X107989082Y-83582774D01*
X107968421Y-83579583D01*
X107948510Y-83575683D01*
X107929351Y-83571073D01*
X107910944Y-83565755D01*
X107893287Y-83559728D01*
X107876382Y-83552991D01*
X107860229Y-83545545D01*
X107844826Y-83537391D01*
X107830175Y-83528527D01*
X107816276Y-83518954D01*
X107803127Y-83508671D01*
X107790730Y-83497680D01*
X107779085Y-83485980D01*
X107768190Y-83473570D01*
X107758047Y-83460452D01*
X107748656Y-83446624D01*
X107740016Y-83432087D01*
X107732127Y-83416841D01*
X107724989Y-83400886D01*
X107718603Y-83384222D01*
X107712968Y-83366848D01*
X107708084Y-83348766D01*
X107703952Y-83329974D01*
X107700571Y-83310474D01*
X107697941Y-83290264D01*
X107696063Y-83269345D01*
X107694936Y-83247717D01*
X107694560Y-83225380D01*
X107694560Y-82586807D01*
X107419420Y-82586807D01*
X107419420Y-82462243D01*
X107696758Y-82411318D01*
X107776625Y-82114197D01*
X107905586Y-82114197D01*
X107905586Y-82416081D01*
X108356946Y-82416081D01*
X108356946Y-82586807D01*
X107905586Y-82586807D01*
X107905586Y-83222815D01*
X107906313Y-83245397D01*
X107908494Y-83266521D01*
X107912129Y-83286189D01*
X107917218Y-83304400D01*
X107923761Y-83321154D01*
X107931758Y-83336451D01*
X107941209Y-83350291D01*
X107952114Y-83362675D01*
X107964473Y-83373601D01*
X107978286Y-83383071D01*
X107993553Y-83391084D01*
X108010274Y-83397640D01*
X108028449Y-83402739D01*
X108048078Y-83406381D01*
X108069162Y-83408566D01*
X108091699Y-83409295D01*
X108110161Y-83409111D01*
X108129828Y-83408561D01*
X108150699Y-83407643D01*
X108172774Y-83406358D01*
X108188160Y-83405298D01*
X108204081Y-83404074D01*
X108220537Y-83402687D01*
X108237529Y-83401137D01*
X108255056Y-83399424D01*
X108273118Y-83397548D01*
X108291715Y-83395509D01*
X108310848Y-83393306D01*
X108330515Y-83390941D01*
X108350718Y-83388412D01*
G37*
D14*
%TO.P,J3,1,Pin_1*%
%TO.N,nRST*%
X106680000Y-71120000D03*
D15*
%TO.P,J3,2,Pin_2*%
%TO.N,GNDDETECT*%
X106680000Y-69850000D03*
%TO.P,J3,3,Pin_3*%
%TO.N,NC*%
X107950000Y-71120000D03*
%TO.P,J3,4,Pin_4*%
%TO.N,KEY*%
X107950000Y-69850000D03*
%TO.P,J3,5,Pin_5*%
%TO.N,SWO*%
X109220000Y-71120000D03*
D16*
%TO.P,J3,6,Pin_6*%
%TO.N,GND*%
X109220000Y-69850000D03*
D15*
%TO.P,J3,7,Pin_7*%
%TO.N,SWCLK*%
X110490000Y-71120000D03*
D16*
%TO.P,J3,8,Pin_8*%
%TO.N,GND*%
X110490000Y-69850000D03*
D15*
%TO.P,J3,9,Pin_9*%
%TO.N,SWDIO*%
X111760000Y-71120000D03*
%TO.P,J3,10,Pin_10*%
%TO.N,VCC*%
X111760000Y-69850000D03*
%TD*%
D17*
%TO.P,J1,20,Pin_20*%
%TO.N,GND*%
X97790000Y-88900000D03*
D18*
%TO.P,J1,19,Pin_19*%
%TO.N,T_SUPPLY*%
X97790000Y-86360000D03*
D17*
%TO.P,J1,18,Pin_18*%
%TO.N,GND*%
X100330000Y-88900000D03*
D18*
%TO.P,J1,17,Pin_17*%
%TO.N,RX*%
X100330000Y-86360000D03*
D17*
%TO.P,J1,16,Pin_16*%
%TO.N,GND*%
X102870000Y-88900000D03*
D18*
%TO.P,J1,15,Pin_15*%
%TO.N,RST*%
X102870000Y-86360000D03*
D17*
%TO.P,J1,14,Pin_14*%
%TO.N,GND*%
X105410000Y-88900000D03*
D18*
%TO.P,J1,13,Pin_13*%
%TO.N,T_JTDO*%
X105410000Y-86360000D03*
D17*
%TO.P,J1,12,Pin_12*%
%TO.N,GND*%
X107950000Y-88900000D03*
D18*
%TO.P,J1,11,Pin_11*%
%TO.N,T_JRCLK*%
X107950000Y-86360000D03*
D17*
%TO.P,J1,10,Pin_10*%
%TO.N,GND*%
X110490000Y-88900000D03*
D18*
%TO.P,J1,9,Pin_9*%
%TO.N,SWCLK*%
X110490000Y-86360000D03*
D17*
%TO.P,J1,8,Pin_8*%
%TO.N,GND*%
X113030000Y-88900000D03*
D18*
%TO.P,J1,7,Pin_7*%
%TO.N,SWDIO*%
X113030000Y-86360000D03*
D17*
%TO.P,J1,6,Pin_6*%
%TO.N,GND*%
X115570000Y-88900000D03*
D18*
%TO.P,J1,5,Pin_5*%
%TO.N,TX*%
X115570000Y-86360000D03*
D17*
%TO.P,J1,4,Pin_4*%
%TO.N,GND*%
X118110000Y-88900000D03*
D18*
%TO.P,J1,3,Pin_3*%
%TO.N,nRST*%
X118110000Y-86360000D03*
%TO.P,J1,2,Pin_2*%
%TO.N,unconnected-(J1-Pin_2-Pad2)*%
X120650000Y-88900000D03*
D19*
%TO.P,J1,1,Pin_1*%
%TO.N,VCC*%
X120650000Y-86360000D03*
%TD*%
D20*
%TO.P,SW1,1,1*%
%TO.N,nRST*%
X113030000Y-75510000D03*
X105080000Y-75510000D03*
%TO.P,SW1,2,2*%
%TO.N,GND*%
X113030000Y-80010000D03*
X105080000Y-80010000D03*
%TD*%
D19*
%TO.P,J4,1,Pin_1*%
%TO.N,nRST*%
X124460000Y-69850000D03*
D18*
%TO.P,J4,2,Pin_2*%
%TO.N,SWO*%
X124460000Y-72390000D03*
%TO.P,J4,3,Pin_3*%
%TO.N,VCC*%
X124460000Y-74930000D03*
%TO.P,J4,4,Pin_4*%
%TO.N,SWDIO*%
X124460000Y-77470000D03*
%TO.P,J4,5,Pin_5*%
%TO.N,SWCLK*%
X124460000Y-80010000D03*
D21*
%TO.P,J4,6,Pin_6*%
%TO.N,GND*%
X124460000Y-82550000D03*
%TD*%
D18*
%TO.P,J2,6,Pin_6*%
%TO.N,T_SUPPLY*%
X95250000Y-69850000D03*
%TO.P,J2,5,Pin_5*%
%TO.N,VCC*%
X95250000Y-72390000D03*
D22*
%TO.P,J2,4,Pin_4*%
%TO.N,GND*%
X95250000Y-74930000D03*
D18*
%TO.P,J2,3,Pin_3*%
%TO.N,TX*%
X95250000Y-77470000D03*
%TO.P,J2,2,Pin_2*%
%TO.N,RX*%
X95250000Y-80010000D03*
D22*
%TO.P,J2,1,Pin_1*%
%TO.N,GNDDETECT*%
X95250000Y-82550000D03*
%TD*%
D23*
%TO.N,GNDDETECT*%
X103632000Y-71120000D03*
%TO.N,GND*%
X109220000Y-83185000D03*
%TO.N,VCC*%
X121920000Y-78740000D03*
%TD*%
D24*
%TO.N,RX*%
X95250000Y-80010000D02*
X97028000Y-81788000D01*
X97028000Y-81788000D02*
X97028000Y-83058000D01*
X97028000Y-83058000D02*
X100330000Y-86360000D01*
%TO.N,TX*%
X95250000Y-77470000D02*
X96520000Y-77470000D01*
X96520000Y-77470000D02*
X97790000Y-78740000D01*
X97790000Y-78740000D02*
X97790000Y-82550000D01*
X97790000Y-82550000D02*
X99314000Y-84074000D01*
X99314000Y-84074000D02*
X108204000Y-84074000D01*
X108204000Y-84074000D02*
X109240000Y-85110000D01*
X109240000Y-85110000D02*
X109240000Y-87142000D01*
X109240000Y-87142000D02*
X109728000Y-87630000D01*
X109728000Y-87630000D02*
X114300000Y-87630000D01*
X114300000Y-87630000D02*
X115570000Y-86360000D01*
%TO.N,GND*%
X105080000Y-77775000D02*
X102235000Y-74930000D01*
X102235000Y-74930000D02*
X95250000Y-74930000D01*
%TO.N,GNDDETECT*%
X103632000Y-71120000D02*
X104902000Y-69850000D01*
X104902000Y-69850000D02*
X106680000Y-69850000D01*
D25*
%TO.N,nRST*%
X106680000Y-72390000D02*
X107950000Y-73660000D01*
X106680000Y-71120000D02*
X106680000Y-72390000D01*
X107950000Y-73660000D02*
X126365000Y-73660000D01*
D24*
X126365000Y-83820000D02*
X126365000Y-73660000D01*
X126365000Y-73660000D02*
X126365000Y-70485000D01*
D25*
%TO.N,GND*%
X112395000Y-80010000D02*
X109220000Y-83185000D01*
X113030000Y-80010000D02*
X112395000Y-80010000D01*
D24*
%TO.N,VCC*%
X124460000Y-74930000D02*
X121920000Y-77470000D01*
X121920000Y-77470000D02*
X121920000Y-78740000D01*
%TO.N,GND*%
X105080000Y-77775000D02*
X105080000Y-80010000D01*
%TO.N,VCC*%
X95250000Y-72390000D02*
X99060000Y-68580000D01*
X99060000Y-68580000D02*
X111197106Y-68580000D01*
X111197106Y-68580000D02*
X111760000Y-69142894D01*
X111760000Y-69142894D02*
X111760000Y-69850000D01*
%TO.N,T_SUPPLY*%
X95250000Y-69850000D02*
X93345000Y-71755000D01*
X93345000Y-71755000D02*
X93345000Y-83820000D01*
X93345000Y-83820000D02*
X95885000Y-86360000D01*
X95885000Y-86360000D02*
X97790000Y-86360000D01*
%TO.N,SWO*%
X124460000Y-72390000D02*
X109782894Y-72390000D01*
X109782894Y-72390000D02*
X109220000Y-71827106D01*
X109220000Y-71827106D02*
X109220000Y-71120000D01*
%TO.N,nRST*%
X120015000Y-84455000D02*
X125730000Y-84455000D01*
X118110000Y-86360000D02*
X120015000Y-84455000D01*
X125730000Y-84455000D02*
X126365000Y-83820000D01*
X126365000Y-70485000D02*
X125730000Y-69850000D01*
X125730000Y-69850000D02*
X124460000Y-69850000D01*
%TO.N,SWCLK*%
X124460000Y-80010000D02*
X116840000Y-80010000D01*
X116840000Y-80010000D02*
X110490000Y-86360000D01*
D25*
%TO.N,GND*%
X105080000Y-80010000D02*
X113030000Y-80010000D01*
%TO.N,nRST*%
X113030000Y-75510000D02*
X105080000Y-75510000D01*
X106680000Y-71120000D02*
X106680000Y-73910000D01*
X106680000Y-73910000D02*
X105080000Y-75510000D01*
%TD*%
%TA.AperFunction,Conductor*%
%TO.N,VCC*%
G36*
X126928556Y-84406310D02*
G01*
X126966160Y-84450319D01*
X126979689Y-84506604D01*
X126980018Y-85595468D01*
X126979917Y-85600508D01*
X126961267Y-86062399D01*
X126960460Y-86072372D01*
X126904933Y-86528770D01*
X126903325Y-86538645D01*
X126811181Y-86989084D01*
X126808782Y-86998798D01*
X126680623Y-87440336D01*
X126677449Y-87449825D01*
X126514100Y-87879614D01*
X126510170Y-87888815D01*
X126312714Y-88304010D01*
X126308056Y-88312866D01*
X126077758Y-88710805D01*
X126072401Y-88719255D01*
X125810779Y-89097317D01*
X125804758Y-89105309D01*
X125513495Y-89461060D01*
X125506850Y-89468539D01*
X125187856Y-89799647D01*
X125180628Y-89806567D01*
X124835990Y-90110866D01*
X124828229Y-90117181D01*
X124460161Y-90392717D01*
X124451916Y-90398385D01*
X124062836Y-90643344D01*
X124054160Y-90648329D01*
X123646599Y-90861121D01*
X123637550Y-90865390D01*
X123214164Y-91044629D01*
X123204800Y-91048155D01*
X122768333Y-91192676D01*
X122758716Y-91195435D01*
X122312024Y-91304295D01*
X122302215Y-91306270D01*
X121848202Y-91378760D01*
X121838266Y-91379938D01*
X121379869Y-91415590D01*
X121369870Y-91415962D01*
X120933344Y-91414610D01*
X120932786Y-91414500D01*
X120909072Y-91414500D01*
X120907254Y-91414500D01*
X120901866Y-91414383D01*
X120884970Y-91413648D01*
X120878720Y-91414500D01*
X92859500Y-91414500D01*
X92797500Y-91397887D01*
X92752113Y-91352500D01*
X92735500Y-91290500D01*
X92735500Y-84511832D01*
X92749015Y-84455537D01*
X92786615Y-84411514D01*
X92840102Y-84389359D01*
X92897818Y-84393901D01*
X92947180Y-84424150D01*
X94159584Y-85636555D01*
X95366231Y-86843202D01*
X95371365Y-86848656D01*
X95411727Y-86894215D01*
X95441986Y-86915101D01*
X95461838Y-86928805D01*
X95467857Y-86933234D01*
X95515774Y-86970774D01*
X95525230Y-86975029D01*
X95544780Y-86986056D01*
X95553325Y-86991954D01*
X95610248Y-87013542D01*
X95617169Y-87016409D01*
X95672665Y-87041386D01*
X95672670Y-87041388D01*
X95682882Y-87043259D01*
X95704490Y-87049282D01*
X95714199Y-87052965D01*
X95774633Y-87060302D01*
X95782025Y-87061426D01*
X95841907Y-87072401D01*
X95897964Y-87069010D01*
X95902666Y-87068726D01*
X95910152Y-87068500D01*
X96563044Y-87068500D01*
X96622062Y-87083445D01*
X96666853Y-87124679D01*
X96714277Y-87197267D01*
X96866760Y-87362906D01*
X96959979Y-87435462D01*
X96997679Y-87484210D01*
X97007256Y-87545086D01*
X96986346Y-87603055D01*
X96940112Y-87643799D01*
X96853780Y-87687787D01*
X96701280Y-87811280D01*
X96577789Y-87963778D01*
X96488701Y-88138621D01*
X96437914Y-88328162D01*
X96431500Y-88409665D01*
X96431500Y-89390334D01*
X96437914Y-89471836D01*
X96488701Y-89661378D01*
X96560989Y-89803250D01*
X96577789Y-89836221D01*
X96701280Y-89988720D01*
X96853779Y-90112211D01*
X97028621Y-90201298D01*
X97218164Y-90252086D01*
X97299663Y-90258500D01*
X98280336Y-90258499D01*
X98361836Y-90252086D01*
X98551379Y-90201298D01*
X98726221Y-90112211D01*
X98878720Y-89988720D01*
X98963635Y-89883857D01*
X99006617Y-89849974D01*
X99060000Y-89837895D01*
X99113383Y-89849974D01*
X99156364Y-89883857D01*
X99241280Y-89988720D01*
X99393779Y-90112211D01*
X99568621Y-90201298D01*
X99758164Y-90252086D01*
X99839663Y-90258500D01*
X100820336Y-90258499D01*
X100901836Y-90252086D01*
X101091379Y-90201298D01*
X101266221Y-90112211D01*
X101418720Y-89988720D01*
X101503635Y-89883857D01*
X101546617Y-89849974D01*
X101600000Y-89837895D01*
X101653383Y-89849974D01*
X101696364Y-89883857D01*
X101781280Y-89988720D01*
X101933779Y-90112211D01*
X102108621Y-90201298D01*
X102298164Y-90252086D01*
X102379663Y-90258500D01*
X103360336Y-90258499D01*
X103441836Y-90252086D01*
X103631379Y-90201298D01*
X103806221Y-90112211D01*
X103958720Y-89988720D01*
X104043635Y-89883857D01*
X104086617Y-89849974D01*
X104140000Y-89837895D01*
X104193383Y-89849974D01*
X104236364Y-89883857D01*
X104321280Y-89988720D01*
X104473779Y-90112211D01*
X104648621Y-90201298D01*
X104838164Y-90252086D01*
X104919663Y-90258500D01*
X105900336Y-90258499D01*
X105981836Y-90252086D01*
X106171379Y-90201298D01*
X106346221Y-90112211D01*
X106498720Y-89988720D01*
X106583635Y-89883857D01*
X106626617Y-89849974D01*
X106680000Y-89837895D01*
X106733383Y-89849974D01*
X106776364Y-89883857D01*
X106861280Y-89988720D01*
X107013779Y-90112211D01*
X107188621Y-90201298D01*
X107378164Y-90252086D01*
X107459663Y-90258500D01*
X108440336Y-90258499D01*
X108521836Y-90252086D01*
X108711379Y-90201298D01*
X108886221Y-90112211D01*
X109038720Y-89988720D01*
X109123635Y-89883857D01*
X109166617Y-89849974D01*
X109220000Y-89837895D01*
X109273383Y-89849974D01*
X109316364Y-89883857D01*
X109401280Y-89988720D01*
X109553779Y-90112211D01*
X109728621Y-90201298D01*
X109918164Y-90252086D01*
X109999663Y-90258500D01*
X110980336Y-90258499D01*
X111061836Y-90252086D01*
X111251379Y-90201298D01*
X111426221Y-90112211D01*
X111578720Y-89988720D01*
X111663635Y-89883857D01*
X111706617Y-89849974D01*
X111760000Y-89837895D01*
X111813383Y-89849974D01*
X111856364Y-89883857D01*
X111941280Y-89988720D01*
X112093779Y-90112211D01*
X112268621Y-90201298D01*
X112458164Y-90252086D01*
X112539663Y-90258500D01*
X113520336Y-90258499D01*
X113601836Y-90252086D01*
X113791379Y-90201298D01*
X113966221Y-90112211D01*
X114118720Y-89988720D01*
X114203635Y-89883857D01*
X114246617Y-89849974D01*
X114300000Y-89837895D01*
X114353383Y-89849974D01*
X114396364Y-89883857D01*
X114481280Y-89988720D01*
X114633779Y-90112211D01*
X114808621Y-90201298D01*
X114998164Y-90252086D01*
X115079663Y-90258500D01*
X116060336Y-90258499D01*
X116141836Y-90252086D01*
X116331379Y-90201298D01*
X116506221Y-90112211D01*
X116658720Y-89988720D01*
X116743635Y-89883857D01*
X116786617Y-89849974D01*
X116840000Y-89837895D01*
X116893383Y-89849974D01*
X116936364Y-89883857D01*
X117021280Y-89988720D01*
X117173779Y-90112211D01*
X117348621Y-90201298D01*
X117538164Y-90252086D01*
X117619663Y-90258500D01*
X118600336Y-90258499D01*
X118681836Y-90252086D01*
X118871379Y-90201298D01*
X119046221Y-90112211D01*
X119198720Y-89988720D01*
X119322211Y-89836221D01*
X119363790Y-89754617D01*
X119406667Y-89706966D01*
X119467613Y-89687093D01*
X119530339Y-89700313D01*
X119565260Y-89731602D01*
X119567318Y-89729708D01*
X119574278Y-89737268D01*
X119726760Y-89902906D01*
X119904424Y-90041189D01*
X120102426Y-90148342D01*
X120315365Y-90221444D01*
X120537431Y-90258500D01*
X120762569Y-90258500D01*
X120984635Y-90221444D01*
X121197574Y-90148342D01*
X121395576Y-90041189D01*
X121573240Y-89902906D01*
X121725722Y-89737268D01*
X121848860Y-89548791D01*
X121939296Y-89342616D01*
X121994564Y-89124368D01*
X122013156Y-88900000D01*
X121994564Y-88675632D01*
X121939296Y-88457384D01*
X121848860Y-88251209D01*
X121725722Y-88062732D01*
X121573240Y-87897094D01*
X121434955Y-87789462D01*
X121395575Y-87758810D01*
X121352302Y-87735392D01*
X121306663Y-87692842D01*
X121287525Y-87633452D01*
X121299734Y-87572261D01*
X121340198Y-87524763D01*
X121411373Y-87474925D01*
X120650000Y-86713553D01*
X119888625Y-87474925D01*
X119959801Y-87524763D01*
X120000265Y-87572261D01*
X120012474Y-87633452D01*
X119993336Y-87692841D01*
X119947698Y-87735392D01*
X119904422Y-87758812D01*
X119726760Y-87897094D01*
X119567318Y-88070292D01*
X119565261Y-88068399D01*
X119530326Y-88099693D01*
X119467603Y-88112905D01*
X119406663Y-88093031D01*
X119363789Y-88045380D01*
X119322211Y-87963779D01*
X119198720Y-87811280D01*
X119046221Y-87687789D01*
X118959887Y-87643799D01*
X118913654Y-87603055D01*
X118892743Y-87545086D01*
X118902320Y-87484210D01*
X118940018Y-87435464D01*
X119033240Y-87362906D01*
X119185722Y-87197268D01*
X119279748Y-87053349D01*
X119323664Y-87012595D01*
X119381563Y-86997188D01*
X119439927Y-87010726D01*
X119485131Y-87050049D01*
X119535072Y-87121373D01*
X119535073Y-87121373D01*
X120296445Y-86360001D01*
X121003553Y-86360001D01*
X121764925Y-87121373D01*
X121823600Y-87037576D01*
X121923430Y-86823492D01*
X121984569Y-86595318D01*
X122005157Y-86360000D01*
X121984569Y-86124681D01*
X121923430Y-85896507D01*
X121823599Y-85682421D01*
X121764926Y-85598626D01*
X121764925Y-85598625D01*
X121003553Y-86360000D01*
X121003553Y-86360001D01*
X120296445Y-86360001D01*
X121452260Y-85204187D01*
X121453217Y-85205144D01*
X121474463Y-85181961D01*
X121539559Y-85163500D01*
X125704837Y-85163500D01*
X125712324Y-85163726D01*
X125773093Y-85167402D01*
X125832994Y-85156424D01*
X125840364Y-85155303D01*
X125900801Y-85147965D01*
X125910498Y-85144287D01*
X125932124Y-85138259D01*
X125942329Y-85136389D01*
X125997850Y-85111400D01*
X126004752Y-85108542D01*
X126045189Y-85093205D01*
X126061675Y-85086954D01*
X126070219Y-85081055D01*
X126089754Y-85070037D01*
X126099226Y-85065775D01*
X126147162Y-85028217D01*
X126153143Y-85023816D01*
X126203273Y-84989215D01*
X126243673Y-84943611D01*
X126248760Y-84938208D01*
X126768010Y-84418958D01*
X126817364Y-84388712D01*
X126875072Y-84384165D01*
X126928556Y-84406310D01*
G37*
%TD.AperFunction*%
%TA.AperFunction,Conductor*%
G36*
X123132245Y-74308786D02*
G01*
X123177183Y-74350874D01*
X123196337Y-74409388D01*
X123187673Y-74455573D01*
X123189377Y-74456030D01*
X123129364Y-74679999D01*
X123129364Y-74680000D01*
X124586000Y-74680000D01*
X124648000Y-74696613D01*
X124693387Y-74742000D01*
X124710000Y-74804000D01*
X124710000Y-75056000D01*
X124693387Y-75118000D01*
X124648000Y-75163387D01*
X124586000Y-75180000D01*
X123129364Y-75180000D01*
X123186569Y-75393492D01*
X123286399Y-75607576D01*
X123421893Y-75801081D01*
X123588918Y-75968106D01*
X123769802Y-76094763D01*
X123810265Y-76142261D01*
X123822474Y-76203452D01*
X123803336Y-76262842D01*
X123757698Y-76305392D01*
X123714422Y-76328812D01*
X123536760Y-76467094D01*
X123384279Y-76632730D01*
X123261138Y-76821211D01*
X123170705Y-77027381D01*
X123115435Y-77245636D01*
X123096843Y-77470000D01*
X123115435Y-77694363D01*
X123115435Y-77694366D01*
X123115436Y-77694368D01*
X123124942Y-77731908D01*
X123170705Y-77912618D01*
X123261138Y-78118788D01*
X123261140Y-78118791D01*
X123384278Y-78307268D01*
X123536760Y-78472906D01*
X123714424Y-78611189D01*
X123750930Y-78630945D01*
X123798435Y-78676524D01*
X123815913Y-78739997D01*
X123798437Y-78803471D01*
X123750933Y-78849052D01*
X123714427Y-78868809D01*
X123714425Y-78868810D01*
X123714424Y-78868811D01*
X123662647Y-78909111D01*
X123536760Y-79007094D01*
X123384277Y-79172732D01*
X123336853Y-79245321D01*
X123292062Y-79286555D01*
X123233044Y-79301500D01*
X116865163Y-79301500D01*
X116857676Y-79301274D01*
X116796904Y-79297597D01*
X116737031Y-79308569D01*
X116729632Y-79309696D01*
X116669196Y-79317035D01*
X116659496Y-79320714D01*
X116637889Y-79326738D01*
X116627671Y-79328610D01*
X116572161Y-79353593D01*
X116565245Y-79356457D01*
X116508325Y-79378045D01*
X116499775Y-79383946D01*
X116480240Y-79394964D01*
X116470773Y-79399225D01*
X116422856Y-79436765D01*
X116416827Y-79441201D01*
X116366728Y-79475783D01*
X116326357Y-79521352D01*
X116321224Y-79526804D01*
X110856775Y-84991253D01*
X110806925Y-85021660D01*
X110748685Y-85025881D01*
X110602569Y-85001500D01*
X110377431Y-85001500D01*
X110155366Y-85038555D01*
X110098338Y-85058133D01*
X110043912Y-85064039D01*
X109992246Y-85045934D01*
X109953413Y-85007346D01*
X109934980Y-84955797D01*
X109934323Y-84950385D01*
X109932965Y-84939199D01*
X109929282Y-84929488D01*
X109923259Y-84907882D01*
X109921388Y-84897671D01*
X109896408Y-84842169D01*
X109893544Y-84835256D01*
X109871954Y-84778325D01*
X109866058Y-84769784D01*
X109855032Y-84750232D01*
X109850776Y-84740775D01*
X109813233Y-84692856D01*
X109808793Y-84686822D01*
X109774214Y-84636725D01*
X109728647Y-84596357D01*
X109723193Y-84591223D01*
X109402738Y-84270768D01*
X109370234Y-84213610D01*
X109371525Y-84147869D01*
X109406248Y-84092030D01*
X109464637Y-84061796D01*
X109502288Y-84053794D01*
X109676752Y-83976118D01*
X109831253Y-83863866D01*
X109959040Y-83721944D01*
X109985634Y-83675883D01*
X110054527Y-83556556D01*
X110077380Y-83486221D01*
X110113542Y-83374928D01*
X110130981Y-83208996D01*
X110142380Y-83168581D01*
X110166617Y-83134286D01*
X112097635Y-81203268D01*
X112144064Y-81174013D01*
X112198570Y-81167662D01*
X112206362Y-81168500D01*
X113853634Y-81168500D01*
X113853638Y-81168500D01*
X113914201Y-81161989D01*
X113914203Y-81161988D01*
X113914205Y-81161988D01*
X113992124Y-81132924D01*
X114051204Y-81110889D01*
X114168261Y-81023261D01*
X114255889Y-80906204D01*
X114280757Y-80839530D01*
X114306988Y-80769205D01*
X114306988Y-80769203D01*
X114306989Y-80769201D01*
X114313500Y-80708638D01*
X114313500Y-79311362D01*
X114306989Y-79250799D01*
X114306988Y-79250797D01*
X114306988Y-79250794D01*
X114255889Y-79113796D01*
X114168261Y-78996738D01*
X114051203Y-78909110D01*
X113914205Y-78858011D01*
X113883919Y-78854755D01*
X113853638Y-78851500D01*
X112206362Y-78851500D01*
X112179445Y-78854393D01*
X112145794Y-78858011D01*
X112008796Y-78909110D01*
X111891738Y-78996738D01*
X111804110Y-79113796D01*
X111753010Y-79250798D01*
X111751402Y-79265756D01*
X111730803Y-79322003D01*
X111686240Y-79362032D01*
X111628113Y-79376500D01*
X106481887Y-79376500D01*
X106423760Y-79362032D01*
X106379197Y-79322003D01*
X106358598Y-79265756D01*
X106356989Y-79250798D01*
X106305889Y-79113796D01*
X106218261Y-78996738D01*
X106101203Y-78909110D01*
X105964204Y-78858011D01*
X105922062Y-78853480D01*
X105903638Y-78851500D01*
X105903637Y-78851500D01*
X105899246Y-78851028D01*
X105842997Y-78830429D01*
X105802968Y-78785866D01*
X105788500Y-78727738D01*
X105788500Y-77800169D01*
X105788726Y-77792682D01*
X105788803Y-77791401D01*
X105792402Y-77731908D01*
X105781425Y-77672011D01*
X105780301Y-77664621D01*
X105772965Y-77604199D01*
X105769288Y-77594503D01*
X105763260Y-77572880D01*
X105761389Y-77562670D01*
X105736404Y-77507159D01*
X105733549Y-77500269D01*
X105711954Y-77443325D01*
X105706060Y-77434786D01*
X105695034Y-77415240D01*
X105690775Y-77405775D01*
X105653234Y-77357857D01*
X105648801Y-77351832D01*
X105614215Y-77301726D01*
X105568647Y-77261357D01*
X105563193Y-77256223D01*
X105187151Y-76880181D01*
X105156901Y-76830818D01*
X105152359Y-76773102D01*
X105174514Y-76719615D01*
X105218537Y-76682015D01*
X105274832Y-76668500D01*
X105903634Y-76668500D01*
X105903638Y-76668500D01*
X105964201Y-76661989D01*
X105964203Y-76661988D01*
X105964205Y-76661988D01*
X106042647Y-76632730D01*
X106101204Y-76610889D01*
X106218261Y-76523261D01*
X106305889Y-76406204D01*
X106356989Y-76269201D01*
X106357673Y-76262842D01*
X106358598Y-76254244D01*
X106379197Y-76197997D01*
X106423760Y-76157968D01*
X106481887Y-76143500D01*
X111628113Y-76143500D01*
X111686240Y-76157968D01*
X111730803Y-76197997D01*
X111751402Y-76254244D01*
X111753010Y-76269201D01*
X111804110Y-76406203D01*
X111891738Y-76523261D01*
X112008796Y-76610889D01*
X112145794Y-76661988D01*
X112145797Y-76661988D01*
X112145799Y-76661989D01*
X112206362Y-76668500D01*
X113853634Y-76668500D01*
X113853638Y-76668500D01*
X113914201Y-76661989D01*
X113914203Y-76661988D01*
X113914205Y-76661988D01*
X113992647Y-76632730D01*
X114051204Y-76610889D01*
X114168261Y-76523261D01*
X114255889Y-76406204D01*
X114284755Y-76328812D01*
X114306988Y-76269205D01*
X114306988Y-76269203D01*
X114306989Y-76269201D01*
X114313500Y-76208638D01*
X114313500Y-74811362D01*
X114306989Y-74750799D01*
X114306988Y-74750797D01*
X114306988Y-74750794D01*
X114255889Y-74613796D01*
X114164572Y-74491810D01*
X114140333Y-74428552D01*
X114152955Y-74361995D01*
X114198672Y-74312005D01*
X114263839Y-74293500D01*
X123072603Y-74293500D01*
X123132245Y-74308786D01*
G37*
%TD.AperFunction*%
%TA.AperFunction,Conductor*%
G36*
X111329214Y-67352113D02*
G01*
X111374601Y-67397500D01*
X111391214Y-67459500D01*
X111391214Y-68838909D01*
X111373571Y-68902659D01*
X111325664Y-68948269D01*
X111282749Y-68971206D01*
X111220466Y-68985787D01*
X111159202Y-68967385D01*
X111150830Y-68962221D01*
X111062738Y-68907885D01*
X111062737Y-68907884D01*
X111062736Y-68907884D01*
X110894426Y-68852112D01*
X110800173Y-68842483D01*
X110790544Y-68841500D01*
X110189455Y-68841500D01*
X110085574Y-68852112D01*
X109961666Y-68893171D01*
X109917262Y-68907885D01*
X109917260Y-68907885D01*
X109903505Y-68912444D01*
X109903019Y-68910980D01*
X109855000Y-68924598D01*
X109806980Y-68910980D01*
X109806495Y-68912444D01*
X109792739Y-68907885D01*
X109792738Y-68907885D01*
X109748333Y-68893171D01*
X109624426Y-68852112D01*
X109530173Y-68842483D01*
X109520544Y-68841500D01*
X108919455Y-68841500D01*
X108815574Y-68852112D01*
X108647258Y-68907886D01*
X108559166Y-68962221D01*
X108497903Y-68980623D01*
X108435619Y-68966041D01*
X108337806Y-68913760D01*
X108337805Y-68913759D01*
X108337804Y-68913759D01*
X108147701Y-68856092D01*
X108147698Y-68856091D01*
X107950000Y-68836620D01*
X107752301Y-68856091D01*
X107688931Y-68875314D01*
X107562196Y-68913759D01*
X107562192Y-68913760D01*
X107562192Y-68913761D01*
X107376225Y-69013162D01*
X107375113Y-69011083D01*
X107343149Y-69026841D01*
X107286851Y-69026841D01*
X107254886Y-69011083D01*
X107253775Y-69013162D01*
X107175280Y-68971206D01*
X107067804Y-68913759D01*
X106877701Y-68856092D01*
X106877698Y-68856091D01*
X106680000Y-68836620D01*
X106482301Y-68856091D01*
X106418931Y-68875314D01*
X106292196Y-68913759D01*
X106292192Y-68913760D01*
X106292192Y-68913761D01*
X106116996Y-69007404D01*
X105987898Y-69113353D01*
X105951007Y-69134251D01*
X105909233Y-69141500D01*
X104927152Y-69141500D01*
X104919665Y-69141274D01*
X104858905Y-69137598D01*
X104799050Y-69148567D01*
X104791649Y-69149694D01*
X104731194Y-69157035D01*
X104721486Y-69160717D01*
X104699883Y-69166739D01*
X104689673Y-69168610D01*
X104634166Y-69193592D01*
X104627247Y-69196458D01*
X104570322Y-69218046D01*
X104561780Y-69223943D01*
X104542238Y-69234965D01*
X104532772Y-69239225D01*
X104484855Y-69276765D01*
X104478827Y-69281201D01*
X104428728Y-69315783D01*
X104388357Y-69361352D01*
X104383224Y-69366804D01*
X103565047Y-70184982D01*
X103536534Y-70206274D01*
X103503148Y-70218591D01*
X103349713Y-70251205D01*
X103175248Y-70328881D01*
X103020748Y-70441133D01*
X102892957Y-70583058D01*
X102797472Y-70748443D01*
X102738458Y-70930070D01*
X102718496Y-71119999D01*
X102738458Y-71309929D01*
X102797472Y-71491556D01*
X102892957Y-71656941D01*
X102922355Y-71689591D01*
X103020747Y-71798866D01*
X103174220Y-71910371D01*
X103175248Y-71911118D01*
X103349714Y-71988795D01*
X103536511Y-72028500D01*
X103536513Y-72028500D01*
X103727487Y-72028500D01*
X103727489Y-72028500D01*
X103914285Y-71988795D01*
X103914286Y-71988794D01*
X103914288Y-71988794D01*
X104088752Y-71911118D01*
X104243253Y-71798866D01*
X104371040Y-71656944D01*
X104413040Y-71584199D01*
X104466527Y-71491556D01*
X104525542Y-71309929D01*
X104530523Y-71262528D01*
X104541923Y-71222104D01*
X104566160Y-71187808D01*
X105159150Y-70594819D01*
X105199379Y-70567939D01*
X105246832Y-70558500D01*
X105629720Y-70558500D01*
X105690834Y-70574606D01*
X105736072Y-70618741D01*
X105753682Y-70679439D01*
X105744162Y-70719556D01*
X105747305Y-70720510D01*
X105743761Y-70732191D01*
X105743759Y-70732196D01*
X105707142Y-70852906D01*
X105686091Y-70922301D01*
X105666620Y-71120000D01*
X105686091Y-71317698D01*
X105686092Y-71317701D01*
X105743759Y-71507804D01*
X105771958Y-71560561D01*
X105837404Y-71683003D01*
X105963432Y-71836568D01*
X106001165Y-71867535D01*
X106034595Y-71910371D01*
X106046500Y-71963388D01*
X106046500Y-72306367D01*
X106044210Y-72327108D01*
X106046439Y-72398017D01*
X106046500Y-72401913D01*
X106046500Y-73596234D01*
X106037061Y-73643687D01*
X106010181Y-73683915D01*
X105378914Y-74315181D01*
X105338686Y-74342061D01*
X105291233Y-74351500D01*
X104256362Y-74351500D01*
X104229445Y-74354393D01*
X104195794Y-74358011D01*
X104058796Y-74409110D01*
X103941738Y-74496738D01*
X103854110Y-74613796D01*
X103803011Y-74750794D01*
X103799393Y-74784445D01*
X103797292Y-74804000D01*
X103796500Y-74811366D01*
X103796500Y-75190168D01*
X103782985Y-75246463D01*
X103745385Y-75290486D01*
X103691898Y-75312641D01*
X103634182Y-75308099D01*
X103584819Y-75277849D01*
X102753775Y-74446805D01*
X102748658Y-74441370D01*
X102708273Y-74395785D01*
X102708272Y-74395784D01*
X102708270Y-74395782D01*
X102658170Y-74361200D01*
X102652137Y-74356761D01*
X102604225Y-74319224D01*
X102594760Y-74314964D01*
X102575216Y-74303941D01*
X102566677Y-74298047D01*
X102566675Y-74298046D01*
X102509767Y-74276463D01*
X102502847Y-74273597D01*
X102491424Y-74268456D01*
X102445135Y-74232400D01*
X102420605Y-74179099D01*
X102423326Y-74120487D01*
X102452687Y-74069690D01*
X102581632Y-73934825D01*
X102705635Y-73746968D01*
X102794103Y-73539988D01*
X102844191Y-73320537D01*
X102854290Y-73095670D01*
X102824075Y-72872613D01*
X102754517Y-72658536D01*
X102647852Y-72460319D01*
X102507508Y-72284334D01*
X102337996Y-72136235D01*
X102300627Y-72113908D01*
X102144762Y-72020783D01*
X101934025Y-71941693D01*
X101712547Y-71901500D01*
X101543845Y-71901500D01*
X101476631Y-71907549D01*
X101375809Y-71916623D01*
X101158828Y-71976507D01*
X100956027Y-72074170D01*
X100773925Y-72206475D01*
X100618365Y-72369178D01*
X100494365Y-72557031D01*
X100405896Y-72764012D01*
X100355809Y-72983462D01*
X100345709Y-73208328D01*
X100375925Y-73431388D01*
X100444905Y-73643687D01*
X100445483Y-73645464D01*
X100552148Y-73843681D01*
X100692492Y-74019666D01*
X100692493Y-74019667D01*
X100692908Y-74020187D01*
X100719181Y-74083616D01*
X100707681Y-74151302D01*
X100661933Y-74202494D01*
X100595961Y-74221500D01*
X96654229Y-74221500D01*
X96589439Y-74203228D01*
X96543744Y-74153795D01*
X96509331Y-74086256D01*
X96462211Y-73993779D01*
X96338720Y-73841280D01*
X96186221Y-73717789D01*
X96092932Y-73670255D01*
X96045828Y-73628213D01*
X96025532Y-73568423D01*
X96037310Y-73506389D01*
X96078107Y-73458198D01*
X96121079Y-73428108D01*
X96288106Y-73261081D01*
X96423600Y-73067576D01*
X96523430Y-72853492D01*
X96580636Y-72640000D01*
X95124000Y-72640000D01*
X95062000Y-72623387D01*
X95016613Y-72578000D01*
X95000000Y-72516000D01*
X95000000Y-72264000D01*
X95016613Y-72202000D01*
X95062000Y-72156613D01*
X95124000Y-72140000D01*
X96580636Y-72140000D01*
X96580635Y-72139999D01*
X96523430Y-71926507D01*
X96423599Y-71712421D01*
X96288109Y-71518921D01*
X96121081Y-71351893D01*
X95940197Y-71225236D01*
X95899733Y-71177737D01*
X95887525Y-71116545D01*
X95906664Y-71057156D01*
X95952302Y-71014607D01*
X95995576Y-70991189D01*
X96173240Y-70852906D01*
X96325722Y-70687268D01*
X96448860Y-70498791D01*
X96539296Y-70292616D01*
X96594564Y-70074368D01*
X96613156Y-69850000D01*
X96594564Y-69625632D01*
X96539296Y-69407384D01*
X96448860Y-69201209D01*
X96325722Y-69012732D01*
X96173240Y-68847094D01*
X95995576Y-68708811D01*
X95797574Y-68601658D01*
X95797573Y-68601657D01*
X95797572Y-68601657D01*
X95584636Y-68528556D01*
X95362569Y-68491500D01*
X95137431Y-68491500D01*
X94915363Y-68528556D01*
X94702427Y-68601657D01*
X94504424Y-68708811D01*
X94326760Y-68847094D01*
X94174279Y-69012730D01*
X94051138Y-69201211D01*
X93960705Y-69407381D01*
X93960704Y-69407384D01*
X93911927Y-69599998D01*
X93905435Y-69625636D01*
X93886843Y-69850000D01*
X93905435Y-70074363D01*
X93912029Y-70100403D01*
X93911374Y-70163761D01*
X93879504Y-70218524D01*
X92947181Y-71150848D01*
X92897818Y-71181098D01*
X92840102Y-71185640D01*
X92786615Y-71163485D01*
X92749015Y-71119462D01*
X92735500Y-71063167D01*
X92735500Y-67459500D01*
X92752113Y-67397500D01*
X92797500Y-67352113D01*
X92859500Y-67335500D01*
X111267214Y-67335500D01*
X111329214Y-67352113D01*
G37*
%TD.AperFunction*%
%TA.AperFunction,Conductor*%
G36*
X123129670Y-69217731D02*
G01*
X123174461Y-69258964D01*
X123194229Y-69316545D01*
X123184209Y-69376595D01*
X123170706Y-69407378D01*
X123170705Y-69407381D01*
X123170704Y-69407384D01*
X123161033Y-69445574D01*
X123115434Y-69625637D01*
X123096843Y-69850000D01*
X123115435Y-70074363D01*
X123115435Y-70074366D01*
X123115436Y-70074368D01*
X123166852Y-70277405D01*
X123170705Y-70292618D01*
X123261138Y-70498788D01*
X123261140Y-70498791D01*
X123384278Y-70687268D01*
X123536760Y-70852906D01*
X123714424Y-70991189D01*
X123714426Y-70991190D01*
X123750931Y-71010946D01*
X123798436Y-71056527D01*
X123815913Y-71120000D01*
X123798436Y-71183473D01*
X123750931Y-71229054D01*
X123714426Y-71248809D01*
X123536760Y-71387094D01*
X123384277Y-71552732D01*
X123336853Y-71625321D01*
X123292062Y-71666555D01*
X123233044Y-71681500D01*
X112810280Y-71681500D01*
X112749166Y-71665394D01*
X112703928Y-71621259D01*
X112686318Y-71560561D01*
X112695837Y-71520443D01*
X112692695Y-71519490D01*
X112696239Y-71507807D01*
X112696241Y-71507804D01*
X112753908Y-71317701D01*
X112773380Y-71120000D01*
X112753908Y-70922299D01*
X112696241Y-70732196D01*
X112602595Y-70556996D01*
X112602566Y-70556961D01*
X112602448Y-70556720D01*
X112596838Y-70546225D01*
X112597182Y-70546040D01*
X112577658Y-70506440D01*
X112577669Y-70450112D01*
X112592326Y-70420414D01*
X112589736Y-70419030D01*
X112688350Y-70234534D01*
X112729160Y-70100001D01*
X112729160Y-70100000D01*
X111634000Y-70100000D01*
X111572000Y-70083387D01*
X111526613Y-70038000D01*
X111510000Y-69976000D01*
X111510000Y-69724000D01*
X111526613Y-69662000D01*
X111572000Y-69616613D01*
X111634000Y-69600000D01*
X112729160Y-69600000D01*
X112729160Y-69599998D01*
X112688350Y-69465465D01*
X112645468Y-69385239D01*
X112630863Y-69323743D01*
X112648468Y-69263037D01*
X112693707Y-69218895D01*
X112754826Y-69202786D01*
X123070653Y-69202786D01*
X123129670Y-69217731D01*
G37*
%TD.AperFunction*%
%TD*%
M02*
