%TF.GenerationSoftware,KiCad,Pcbnew,7.0.1*%
%TF.CreationDate,2023-05-29T15:36:50+02:00*%
%TF.ProjectId,stlink-converter,73746c69-6e6b-42d6-936f-6e7665727465,rev?*%
%TF.SameCoordinates,Original*%
%TF.FileFunction,Legend,Top*%
%TF.FilePolarity,Positive*%
%FSLAX46Y46*%
G04 Gerber Fmt 4.6, Leading zero omitted, Abs format (unit mm)*
G04 Created by KiCad (PCBNEW 7.0.1) date 2023-05-29 15:36:50*
%MOMM*%
%LPD*%
G01*
G04 APERTURE LIST*
%ADD10C,0.200000*%
%ADD11C,0.300000*%
%ADD12C,0.150000*%
%ADD13C,0.120000*%
G04 APERTURE END LIST*
D10*
X97266095Y-82935619D02*
X97266095Y-81935619D01*
X97266095Y-81935619D02*
X97504190Y-81935619D01*
X97504190Y-81935619D02*
X97647047Y-81983238D01*
X97647047Y-81983238D02*
X97742285Y-82078476D01*
X97742285Y-82078476D02*
X97789904Y-82173714D01*
X97789904Y-82173714D02*
X97837523Y-82364190D01*
X97837523Y-82364190D02*
X97837523Y-82507047D01*
X97837523Y-82507047D02*
X97789904Y-82697523D01*
X97789904Y-82697523D02*
X97742285Y-82792761D01*
X97742285Y-82792761D02*
X97647047Y-82888000D01*
X97647047Y-82888000D02*
X97504190Y-82935619D01*
X97504190Y-82935619D02*
X97266095Y-82935619D01*
X98266095Y-82411809D02*
X98599428Y-82411809D01*
X98742285Y-82935619D02*
X98266095Y-82935619D01*
X98266095Y-82935619D02*
X98266095Y-81935619D01*
X98266095Y-81935619D02*
X98742285Y-81935619D01*
X99028000Y-81935619D02*
X99599428Y-81935619D01*
X99313714Y-82935619D02*
X99313714Y-81935619D01*
X99932762Y-82411809D02*
X100266095Y-82411809D01*
X100408952Y-82935619D02*
X99932762Y-82935619D01*
X99932762Y-82935619D02*
X99932762Y-81935619D01*
X99932762Y-81935619D02*
X100408952Y-81935619D01*
X101408952Y-82840380D02*
X101361333Y-82888000D01*
X101361333Y-82888000D02*
X101218476Y-82935619D01*
X101218476Y-82935619D02*
X101123238Y-82935619D01*
X101123238Y-82935619D02*
X100980381Y-82888000D01*
X100980381Y-82888000D02*
X100885143Y-82792761D01*
X100885143Y-82792761D02*
X100837524Y-82697523D01*
X100837524Y-82697523D02*
X100789905Y-82507047D01*
X100789905Y-82507047D02*
X100789905Y-82364190D01*
X100789905Y-82364190D02*
X100837524Y-82173714D01*
X100837524Y-82173714D02*
X100885143Y-82078476D01*
X100885143Y-82078476D02*
X100980381Y-81983238D01*
X100980381Y-81983238D02*
X101123238Y-81935619D01*
X101123238Y-81935619D02*
X101218476Y-81935619D01*
X101218476Y-81935619D02*
X101361333Y-81983238D01*
X101361333Y-81983238D02*
X101408952Y-82030857D01*
X101694667Y-81935619D02*
X102266095Y-81935619D01*
X101980381Y-82935619D02*
X101980381Y-81935619D01*
X97789904Y-74363238D02*
X97694666Y-74315619D01*
X97694666Y-74315619D02*
X97551809Y-74315619D01*
X97551809Y-74315619D02*
X97408952Y-74363238D01*
X97408952Y-74363238D02*
X97313714Y-74458476D01*
X97313714Y-74458476D02*
X97266095Y-74553714D01*
X97266095Y-74553714D02*
X97218476Y-74744190D01*
X97218476Y-74744190D02*
X97218476Y-74887047D01*
X97218476Y-74887047D02*
X97266095Y-75077523D01*
X97266095Y-75077523D02*
X97313714Y-75172761D01*
X97313714Y-75172761D02*
X97408952Y-75268000D01*
X97408952Y-75268000D02*
X97551809Y-75315619D01*
X97551809Y-75315619D02*
X97647047Y-75315619D01*
X97647047Y-75315619D02*
X97789904Y-75268000D01*
X97789904Y-75268000D02*
X97837523Y-75220380D01*
X97837523Y-75220380D02*
X97837523Y-74887047D01*
X97837523Y-74887047D02*
X97647047Y-74887047D01*
X98266095Y-75315619D02*
X98266095Y-74315619D01*
X98266095Y-74315619D02*
X98837523Y-75315619D01*
X98837523Y-75315619D02*
X98837523Y-74315619D01*
X99313714Y-75315619D02*
X99313714Y-74315619D01*
X99313714Y-74315619D02*
X99551809Y-74315619D01*
X99551809Y-74315619D02*
X99694666Y-74363238D01*
X99694666Y-74363238D02*
X99789904Y-74458476D01*
X99789904Y-74458476D02*
X99837523Y-74553714D01*
X99837523Y-74553714D02*
X99885142Y-74744190D01*
X99885142Y-74744190D02*
X99885142Y-74887047D01*
X99885142Y-74887047D02*
X99837523Y-75077523D01*
X99837523Y-75077523D02*
X99789904Y-75172761D01*
X99789904Y-75172761D02*
X99694666Y-75268000D01*
X99694666Y-75268000D02*
X99551809Y-75315619D01*
X99551809Y-75315619D02*
X99313714Y-75315619D01*
X96361238Y-71775619D02*
X96694571Y-72775619D01*
X96694571Y-72775619D02*
X97027904Y-71775619D01*
X97932666Y-72680380D02*
X97885047Y-72728000D01*
X97885047Y-72728000D02*
X97742190Y-72775619D01*
X97742190Y-72775619D02*
X97646952Y-72775619D01*
X97646952Y-72775619D02*
X97504095Y-72728000D01*
X97504095Y-72728000D02*
X97408857Y-72632761D01*
X97408857Y-72632761D02*
X97361238Y-72537523D01*
X97361238Y-72537523D02*
X97313619Y-72347047D01*
X97313619Y-72347047D02*
X97313619Y-72204190D01*
X97313619Y-72204190D02*
X97361238Y-72013714D01*
X97361238Y-72013714D02*
X97408857Y-71918476D01*
X97408857Y-71918476D02*
X97504095Y-71823238D01*
X97504095Y-71823238D02*
X97646952Y-71775619D01*
X97646952Y-71775619D02*
X97742190Y-71775619D01*
X97742190Y-71775619D02*
X97885047Y-71823238D01*
X97885047Y-71823238D02*
X97932666Y-71870857D01*
X98932666Y-72680380D02*
X98885047Y-72728000D01*
X98885047Y-72728000D02*
X98742190Y-72775619D01*
X98742190Y-72775619D02*
X98646952Y-72775619D01*
X98646952Y-72775619D02*
X98504095Y-72728000D01*
X98504095Y-72728000D02*
X98408857Y-72632761D01*
X98408857Y-72632761D02*
X98361238Y-72537523D01*
X98361238Y-72537523D02*
X98313619Y-72347047D01*
X98313619Y-72347047D02*
X98313619Y-72204190D01*
X98313619Y-72204190D02*
X98361238Y-72013714D01*
X98361238Y-72013714D02*
X98408857Y-71918476D01*
X98408857Y-71918476D02*
X98504095Y-71823238D01*
X98504095Y-71823238D02*
X98646952Y-71775619D01*
X98646952Y-71775619D02*
X98742190Y-71775619D01*
X98742190Y-71775619D02*
X98885047Y-71823238D01*
X98885047Y-71823238D02*
X98932666Y-71870857D01*
X97837523Y-80395619D02*
X97504190Y-79919428D01*
X97266095Y-80395619D02*
X97266095Y-79395619D01*
X97266095Y-79395619D02*
X97647047Y-79395619D01*
X97647047Y-79395619D02*
X97742285Y-79443238D01*
X97742285Y-79443238D02*
X97789904Y-79490857D01*
X97789904Y-79490857D02*
X97837523Y-79586095D01*
X97837523Y-79586095D02*
X97837523Y-79728952D01*
X97837523Y-79728952D02*
X97789904Y-79824190D01*
X97789904Y-79824190D02*
X97742285Y-79871809D01*
X97742285Y-79871809D02*
X97647047Y-79919428D01*
X97647047Y-79919428D02*
X97266095Y-79919428D01*
X98170857Y-79395619D02*
X98837523Y-80395619D01*
X98837523Y-79395619D02*
X98170857Y-80395619D01*
X97123238Y-77363619D02*
X97694666Y-77363619D01*
X97408952Y-78363619D02*
X97408952Y-77363619D01*
X97932762Y-77363619D02*
X98599428Y-78363619D01*
X98599428Y-77363619D02*
X97932762Y-78363619D01*
X97218476Y-70188000D02*
X97361333Y-70235619D01*
X97361333Y-70235619D02*
X97599428Y-70235619D01*
X97599428Y-70235619D02*
X97694666Y-70188000D01*
X97694666Y-70188000D02*
X97742285Y-70140380D01*
X97742285Y-70140380D02*
X97789904Y-70045142D01*
X97789904Y-70045142D02*
X97789904Y-69949904D01*
X97789904Y-69949904D02*
X97742285Y-69854666D01*
X97742285Y-69854666D02*
X97694666Y-69807047D01*
X97694666Y-69807047D02*
X97599428Y-69759428D01*
X97599428Y-69759428D02*
X97408952Y-69711809D01*
X97408952Y-69711809D02*
X97313714Y-69664190D01*
X97313714Y-69664190D02*
X97266095Y-69616571D01*
X97266095Y-69616571D02*
X97218476Y-69521333D01*
X97218476Y-69521333D02*
X97218476Y-69426095D01*
X97218476Y-69426095D02*
X97266095Y-69330857D01*
X97266095Y-69330857D02*
X97313714Y-69283238D01*
X97313714Y-69283238D02*
X97408952Y-69235619D01*
X97408952Y-69235619D02*
X97647047Y-69235619D01*
X97647047Y-69235619D02*
X97789904Y-69283238D01*
X98218476Y-69235619D02*
X98218476Y-70045142D01*
X98218476Y-70045142D02*
X98266095Y-70140380D01*
X98266095Y-70140380D02*
X98313714Y-70188000D01*
X98313714Y-70188000D02*
X98408952Y-70235619D01*
X98408952Y-70235619D02*
X98599428Y-70235619D01*
X98599428Y-70235619D02*
X98694666Y-70188000D01*
X98694666Y-70188000D02*
X98742285Y-70140380D01*
X98742285Y-70140380D02*
X98789904Y-70045142D01*
X98789904Y-70045142D02*
X98789904Y-69235619D01*
X99266095Y-70235619D02*
X99266095Y-69235619D01*
X99266095Y-69235619D02*
X99647047Y-69235619D01*
X99647047Y-69235619D02*
X99742285Y-69283238D01*
X99742285Y-69283238D02*
X99789904Y-69330857D01*
X99789904Y-69330857D02*
X99837523Y-69426095D01*
X99837523Y-69426095D02*
X99837523Y-69568952D01*
X99837523Y-69568952D02*
X99789904Y-69664190D01*
X99789904Y-69664190D02*
X99742285Y-69711809D01*
X99742285Y-69711809D02*
X99647047Y-69759428D01*
X99647047Y-69759428D02*
X99266095Y-69759428D01*
D11*
X117728857Y-81953857D02*
X117586000Y-81882428D01*
X117586000Y-81882428D02*
X117371714Y-81882428D01*
X117371714Y-81882428D02*
X117157428Y-81953857D01*
X117157428Y-81953857D02*
X117014571Y-82096714D01*
X117014571Y-82096714D02*
X116943142Y-82239571D01*
X116943142Y-82239571D02*
X116871714Y-82525285D01*
X116871714Y-82525285D02*
X116871714Y-82739571D01*
X116871714Y-82739571D02*
X116943142Y-83025285D01*
X116943142Y-83025285D02*
X117014571Y-83168142D01*
X117014571Y-83168142D02*
X117157428Y-83311000D01*
X117157428Y-83311000D02*
X117371714Y-83382428D01*
X117371714Y-83382428D02*
X117514571Y-83382428D01*
X117514571Y-83382428D02*
X117728857Y-83311000D01*
X117728857Y-83311000D02*
X117800285Y-83239571D01*
X117800285Y-83239571D02*
X117800285Y-82739571D01*
X117800285Y-82739571D02*
X117514571Y-82739571D01*
X118443142Y-83382428D02*
X118443142Y-81882428D01*
X118443142Y-81882428D02*
X119300285Y-83382428D01*
X119300285Y-83382428D02*
X119300285Y-81882428D01*
X120014571Y-83382428D02*
X120014571Y-81882428D01*
X120014571Y-81882428D02*
X120371714Y-81882428D01*
X120371714Y-81882428D02*
X120586000Y-81953857D01*
X120586000Y-81953857D02*
X120728857Y-82096714D01*
X120728857Y-82096714D02*
X120800286Y-82239571D01*
X120800286Y-82239571D02*
X120871714Y-82525285D01*
X120871714Y-82525285D02*
X120871714Y-82739571D01*
X120871714Y-82739571D02*
X120800286Y-83025285D01*
X120800286Y-83025285D02*
X120728857Y-83168142D01*
X120728857Y-83168142D02*
X120586000Y-83311000D01*
X120586000Y-83311000D02*
X120371714Y-83382428D01*
X120371714Y-83382428D02*
X120014571Y-83382428D01*
X114839714Y-80771000D02*
X115054000Y-80842428D01*
X115054000Y-80842428D02*
X115411142Y-80842428D01*
X115411142Y-80842428D02*
X115554000Y-80771000D01*
X115554000Y-80771000D02*
X115625428Y-80699571D01*
X115625428Y-80699571D02*
X115696857Y-80556714D01*
X115696857Y-80556714D02*
X115696857Y-80413857D01*
X115696857Y-80413857D02*
X115625428Y-80271000D01*
X115625428Y-80271000D02*
X115554000Y-80199571D01*
X115554000Y-80199571D02*
X115411142Y-80128142D01*
X115411142Y-80128142D02*
X115125428Y-80056714D01*
X115125428Y-80056714D02*
X114982571Y-79985285D01*
X114982571Y-79985285D02*
X114911142Y-79913857D01*
X114911142Y-79913857D02*
X114839714Y-79771000D01*
X114839714Y-79771000D02*
X114839714Y-79628142D01*
X114839714Y-79628142D02*
X114911142Y-79485285D01*
X114911142Y-79485285D02*
X114982571Y-79413857D01*
X114982571Y-79413857D02*
X115125428Y-79342428D01*
X115125428Y-79342428D02*
X115482571Y-79342428D01*
X115482571Y-79342428D02*
X115696857Y-79413857D01*
X116196856Y-79342428D02*
X116553999Y-80842428D01*
X116553999Y-80842428D02*
X116839713Y-79771000D01*
X116839713Y-79771000D02*
X117125428Y-80842428D01*
X117125428Y-80842428D02*
X117482571Y-79342428D01*
X118911142Y-80699571D02*
X118839714Y-80771000D01*
X118839714Y-80771000D02*
X118625428Y-80842428D01*
X118625428Y-80842428D02*
X118482571Y-80842428D01*
X118482571Y-80842428D02*
X118268285Y-80771000D01*
X118268285Y-80771000D02*
X118125428Y-80628142D01*
X118125428Y-80628142D02*
X118053999Y-80485285D01*
X118053999Y-80485285D02*
X117982571Y-80199571D01*
X117982571Y-80199571D02*
X117982571Y-79985285D01*
X117982571Y-79985285D02*
X118053999Y-79699571D01*
X118053999Y-79699571D02*
X118125428Y-79556714D01*
X118125428Y-79556714D02*
X118268285Y-79413857D01*
X118268285Y-79413857D02*
X118482571Y-79342428D01*
X118482571Y-79342428D02*
X118625428Y-79342428D01*
X118625428Y-79342428D02*
X118839714Y-79413857D01*
X118839714Y-79413857D02*
X118911142Y-79485285D01*
X120268285Y-80842428D02*
X119553999Y-80842428D01*
X119553999Y-80842428D02*
X119553999Y-79342428D01*
X120768285Y-80842428D02*
X120768285Y-79342428D01*
X121625428Y-80842428D02*
X120982571Y-79985285D01*
X121625428Y-79342428D02*
X120768285Y-80199571D01*
X114839714Y-78231000D02*
X115054000Y-78302428D01*
X115054000Y-78302428D02*
X115411142Y-78302428D01*
X115411142Y-78302428D02*
X115554000Y-78231000D01*
X115554000Y-78231000D02*
X115625428Y-78159571D01*
X115625428Y-78159571D02*
X115696857Y-78016714D01*
X115696857Y-78016714D02*
X115696857Y-77873857D01*
X115696857Y-77873857D02*
X115625428Y-77731000D01*
X115625428Y-77731000D02*
X115554000Y-77659571D01*
X115554000Y-77659571D02*
X115411142Y-77588142D01*
X115411142Y-77588142D02*
X115125428Y-77516714D01*
X115125428Y-77516714D02*
X114982571Y-77445285D01*
X114982571Y-77445285D02*
X114911142Y-77373857D01*
X114911142Y-77373857D02*
X114839714Y-77231000D01*
X114839714Y-77231000D02*
X114839714Y-77088142D01*
X114839714Y-77088142D02*
X114911142Y-76945285D01*
X114911142Y-76945285D02*
X114982571Y-76873857D01*
X114982571Y-76873857D02*
X115125428Y-76802428D01*
X115125428Y-76802428D02*
X115482571Y-76802428D01*
X115482571Y-76802428D02*
X115696857Y-76873857D01*
X116196856Y-76802428D02*
X116553999Y-78302428D01*
X116553999Y-78302428D02*
X116839713Y-77231000D01*
X116839713Y-77231000D02*
X117125428Y-78302428D01*
X117125428Y-78302428D02*
X117482571Y-76802428D01*
X118053999Y-78302428D02*
X118053999Y-76802428D01*
X118053999Y-76802428D02*
X118411142Y-76802428D01*
X118411142Y-76802428D02*
X118625428Y-76873857D01*
X118625428Y-76873857D02*
X118768285Y-77016714D01*
X118768285Y-77016714D02*
X118839714Y-77159571D01*
X118839714Y-77159571D02*
X118911142Y-77445285D01*
X118911142Y-77445285D02*
X118911142Y-77659571D01*
X118911142Y-77659571D02*
X118839714Y-77945285D01*
X118839714Y-77945285D02*
X118768285Y-78088142D01*
X118768285Y-78088142D02*
X118625428Y-78231000D01*
X118625428Y-78231000D02*
X118411142Y-78302428D01*
X118411142Y-78302428D02*
X118053999Y-78302428D01*
X119553999Y-78302428D02*
X119553999Y-76802428D01*
X120554000Y-76802428D02*
X120839714Y-76802428D01*
X120839714Y-76802428D02*
X120982571Y-76873857D01*
X120982571Y-76873857D02*
X121125428Y-77016714D01*
X121125428Y-77016714D02*
X121196857Y-77302428D01*
X121196857Y-77302428D02*
X121196857Y-77802428D01*
X121196857Y-77802428D02*
X121125428Y-78088142D01*
X121125428Y-78088142D02*
X120982571Y-78231000D01*
X120982571Y-78231000D02*
X120839714Y-78302428D01*
X120839714Y-78302428D02*
X120554000Y-78302428D01*
X120554000Y-78302428D02*
X120411143Y-78231000D01*
X120411143Y-78231000D02*
X120268285Y-78088142D01*
X120268285Y-78088142D02*
X120196857Y-77802428D01*
X120196857Y-77802428D02*
X120196857Y-77302428D01*
X120196857Y-77302428D02*
X120268285Y-77016714D01*
X120268285Y-77016714D02*
X120411143Y-76873857D01*
X120411143Y-76873857D02*
X120554000Y-76802428D01*
X116728857Y-74008428D02*
X117228857Y-75508428D01*
X117228857Y-75508428D02*
X117728857Y-74008428D01*
X118228856Y-75508428D02*
X118228856Y-74008428D01*
X118228856Y-74008428D02*
X118585999Y-74008428D01*
X118585999Y-74008428D02*
X118800285Y-74079857D01*
X118800285Y-74079857D02*
X118943142Y-74222714D01*
X118943142Y-74222714D02*
X119014571Y-74365571D01*
X119014571Y-74365571D02*
X119085999Y-74651285D01*
X119085999Y-74651285D02*
X119085999Y-74865571D01*
X119085999Y-74865571D02*
X119014571Y-75151285D01*
X119014571Y-75151285D02*
X118943142Y-75294142D01*
X118943142Y-75294142D02*
X118800285Y-75437000D01*
X118800285Y-75437000D02*
X118585999Y-75508428D01*
X118585999Y-75508428D02*
X118228856Y-75508428D01*
X119728856Y-75508428D02*
X119728856Y-74008428D01*
X119728856Y-74008428D02*
X120085999Y-74008428D01*
X120085999Y-74008428D02*
X120300285Y-74079857D01*
X120300285Y-74079857D02*
X120443142Y-74222714D01*
X120443142Y-74222714D02*
X120514571Y-74365571D01*
X120514571Y-74365571D02*
X120585999Y-74651285D01*
X120585999Y-74651285D02*
X120585999Y-74865571D01*
X120585999Y-74865571D02*
X120514571Y-75151285D01*
X120514571Y-75151285D02*
X120443142Y-75294142D01*
X120443142Y-75294142D02*
X120300285Y-75437000D01*
X120300285Y-75437000D02*
X120085999Y-75508428D01*
X120085999Y-75508428D02*
X119728856Y-75508428D01*
X116871714Y-72897000D02*
X117086000Y-72968428D01*
X117086000Y-72968428D02*
X117443142Y-72968428D01*
X117443142Y-72968428D02*
X117586000Y-72897000D01*
X117586000Y-72897000D02*
X117657428Y-72825571D01*
X117657428Y-72825571D02*
X117728857Y-72682714D01*
X117728857Y-72682714D02*
X117728857Y-72539857D01*
X117728857Y-72539857D02*
X117657428Y-72397000D01*
X117657428Y-72397000D02*
X117586000Y-72325571D01*
X117586000Y-72325571D02*
X117443142Y-72254142D01*
X117443142Y-72254142D02*
X117157428Y-72182714D01*
X117157428Y-72182714D02*
X117014571Y-72111285D01*
X117014571Y-72111285D02*
X116943142Y-72039857D01*
X116943142Y-72039857D02*
X116871714Y-71897000D01*
X116871714Y-71897000D02*
X116871714Y-71754142D01*
X116871714Y-71754142D02*
X116943142Y-71611285D01*
X116943142Y-71611285D02*
X117014571Y-71539857D01*
X117014571Y-71539857D02*
X117157428Y-71468428D01*
X117157428Y-71468428D02*
X117514571Y-71468428D01*
X117514571Y-71468428D02*
X117728857Y-71539857D01*
X118228856Y-71468428D02*
X118585999Y-72968428D01*
X118585999Y-72968428D02*
X118871713Y-71897000D01*
X118871713Y-71897000D02*
X119157428Y-72968428D01*
X119157428Y-72968428D02*
X119514571Y-71468428D01*
X120371714Y-71468428D02*
X120657428Y-71468428D01*
X120657428Y-71468428D02*
X120800285Y-71539857D01*
X120800285Y-71539857D02*
X120943142Y-71682714D01*
X120943142Y-71682714D02*
X121014571Y-71968428D01*
X121014571Y-71968428D02*
X121014571Y-72468428D01*
X121014571Y-72468428D02*
X120943142Y-72754142D01*
X120943142Y-72754142D02*
X120800285Y-72897000D01*
X120800285Y-72897000D02*
X120657428Y-72968428D01*
X120657428Y-72968428D02*
X120371714Y-72968428D01*
X120371714Y-72968428D02*
X120228857Y-72897000D01*
X120228857Y-72897000D02*
X120085999Y-72754142D01*
X120085999Y-72754142D02*
X120014571Y-72468428D01*
X120014571Y-72468428D02*
X120014571Y-71968428D01*
X120014571Y-71968428D02*
X120085999Y-71682714D01*
X120085999Y-71682714D02*
X120228857Y-71539857D01*
X120228857Y-71539857D02*
X120371714Y-71468428D01*
X116943142Y-69428428D02*
X116943142Y-70428428D01*
X116943142Y-69571285D02*
X117014571Y-69499857D01*
X117014571Y-69499857D02*
X117157428Y-69428428D01*
X117157428Y-69428428D02*
X117371714Y-69428428D01*
X117371714Y-69428428D02*
X117514571Y-69499857D01*
X117514571Y-69499857D02*
X117586000Y-69642714D01*
X117586000Y-69642714D02*
X117586000Y-70428428D01*
X119157428Y-70428428D02*
X118657428Y-69714142D01*
X118300285Y-70428428D02*
X118300285Y-68928428D01*
X118300285Y-68928428D02*
X118871714Y-68928428D01*
X118871714Y-68928428D02*
X119014571Y-68999857D01*
X119014571Y-68999857D02*
X119086000Y-69071285D01*
X119086000Y-69071285D02*
X119157428Y-69214142D01*
X119157428Y-69214142D02*
X119157428Y-69428428D01*
X119157428Y-69428428D02*
X119086000Y-69571285D01*
X119086000Y-69571285D02*
X119014571Y-69642714D01*
X119014571Y-69642714D02*
X118871714Y-69714142D01*
X118871714Y-69714142D02*
X118300285Y-69714142D01*
X119728857Y-70357000D02*
X119943143Y-70428428D01*
X119943143Y-70428428D02*
X120300285Y-70428428D01*
X120300285Y-70428428D02*
X120443143Y-70357000D01*
X120443143Y-70357000D02*
X120514571Y-70285571D01*
X120514571Y-70285571D02*
X120586000Y-70142714D01*
X120586000Y-70142714D02*
X120586000Y-69999857D01*
X120586000Y-69999857D02*
X120514571Y-69857000D01*
X120514571Y-69857000D02*
X120443143Y-69785571D01*
X120443143Y-69785571D02*
X120300285Y-69714142D01*
X120300285Y-69714142D02*
X120014571Y-69642714D01*
X120014571Y-69642714D02*
X119871714Y-69571285D01*
X119871714Y-69571285D02*
X119800285Y-69499857D01*
X119800285Y-69499857D02*
X119728857Y-69357000D01*
X119728857Y-69357000D02*
X119728857Y-69214142D01*
X119728857Y-69214142D02*
X119800285Y-69071285D01*
X119800285Y-69071285D02*
X119871714Y-68999857D01*
X119871714Y-68999857D02*
X120014571Y-68928428D01*
X120014571Y-68928428D02*
X120371714Y-68928428D01*
X120371714Y-68928428D02*
X120586000Y-68999857D01*
X121014571Y-68928428D02*
X121871714Y-68928428D01*
X121443142Y-70428428D02*
X121443142Y-68928428D01*
D12*
G36*
X109013332Y-84953363D02*
G01*
X108387094Y-84203049D01*
X108631337Y-84203049D01*
X109135454Y-84735010D01*
X109638106Y-84203049D01*
X109882837Y-84203049D01*
X109256598Y-84953363D01*
X109013332Y-84953363D01*
G37*
G36*
X108886332Y-68443363D02*
G01*
X108260094Y-67693049D01*
X108504337Y-67693049D01*
X109008454Y-68225010D01*
X109511106Y-67693049D01*
X109755837Y-67693049D01*
X109129598Y-68443363D01*
X108886332Y-68443363D01*
G37*
%TO.C,H1*%
X100838095Y-70414619D02*
X100838095Y-69414619D01*
X100838095Y-69890809D02*
X101409523Y-69890809D01*
X101409523Y-70414619D02*
X101409523Y-69414619D01*
X102409523Y-70414619D02*
X101838095Y-70414619D01*
X102123809Y-70414619D02*
X102123809Y-69414619D01*
X102123809Y-69414619D02*
X102028571Y-69557476D01*
X102028571Y-69557476D02*
X101933333Y-69652714D01*
X101933333Y-69652714D02*
X101838095Y-69700333D01*
%TO.C,SW1*%
X107721667Y-73675000D02*
X107864524Y-73722619D01*
X107864524Y-73722619D02*
X108102619Y-73722619D01*
X108102619Y-73722619D02*
X108197857Y-73675000D01*
X108197857Y-73675000D02*
X108245476Y-73627380D01*
X108245476Y-73627380D02*
X108293095Y-73532142D01*
X108293095Y-73532142D02*
X108293095Y-73436904D01*
X108293095Y-73436904D02*
X108245476Y-73341666D01*
X108245476Y-73341666D02*
X108197857Y-73294047D01*
X108197857Y-73294047D02*
X108102619Y-73246428D01*
X108102619Y-73246428D02*
X107912143Y-73198809D01*
X107912143Y-73198809D02*
X107816905Y-73151190D01*
X107816905Y-73151190D02*
X107769286Y-73103571D01*
X107769286Y-73103571D02*
X107721667Y-73008333D01*
X107721667Y-73008333D02*
X107721667Y-72913095D01*
X107721667Y-72913095D02*
X107769286Y-72817857D01*
X107769286Y-72817857D02*
X107816905Y-72770238D01*
X107816905Y-72770238D02*
X107912143Y-72722619D01*
X107912143Y-72722619D02*
X108150238Y-72722619D01*
X108150238Y-72722619D02*
X108293095Y-72770238D01*
X108626429Y-72722619D02*
X108864524Y-73722619D01*
X108864524Y-73722619D02*
X109055000Y-73008333D01*
X109055000Y-73008333D02*
X109245476Y-73722619D01*
X109245476Y-73722619D02*
X109483572Y-72722619D01*
X110388333Y-73722619D02*
X109816905Y-73722619D01*
X110102619Y-73722619D02*
X110102619Y-72722619D01*
X110102619Y-72722619D02*
X110007381Y-72865476D01*
X110007381Y-72865476D02*
X109912143Y-72960714D01*
X109912143Y-72960714D02*
X109816905Y-73008333D01*
D13*
%TO.C,J3*%
X105985000Y-70360000D02*
X105985000Y-70157530D01*
X106116529Y-70360000D02*
X105985000Y-70360000D01*
X107440000Y-72250000D02*
X112455000Y-72250000D01*
X105985000Y-68720000D02*
X112455000Y-68720000D01*
X105920000Y-72250000D02*
X105920000Y-71120000D01*
X107386529Y-70360000D02*
X107243471Y-70360000D01*
X106680000Y-72250000D02*
X105920000Y-72250000D01*
X107440000Y-72250000D02*
X107440000Y-71683471D01*
X112455000Y-72250000D02*
X112455000Y-71427530D01*
X107440000Y-70556529D02*
X107440000Y-70413471D01*
X112455000Y-69542470D02*
X112455000Y-68720000D01*
X105985000Y-69542470D02*
X105985000Y-68720000D01*
X112455000Y-70812470D02*
X112455000Y-70157530D01*
%TO.C,J1*%
X119380000Y-87630000D02*
X121980000Y-87630000D01*
X119380000Y-85030000D02*
X96460000Y-85030000D01*
X121980000Y-85030000D02*
X121980000Y-86360000D01*
X96460000Y-85030000D02*
X96460000Y-90230000D01*
X121980000Y-87630000D02*
X121980000Y-90230000D01*
X120650000Y-85030000D02*
X121980000Y-85030000D01*
X119380000Y-85030000D02*
X119380000Y-87630000D01*
X121980000Y-90230000D02*
X96460000Y-90230000D01*
%TO.C,SW1*%
X112205000Y-80960000D02*
X112205000Y-81210000D01*
X105905000Y-79060000D02*
X105905000Y-76460000D01*
X105905000Y-81210000D02*
X105905000Y-80960000D01*
X105905000Y-74560000D02*
X105905000Y-74310000D01*
X112205000Y-81210000D02*
X105905000Y-81210000D01*
X112205000Y-74310000D02*
X112205000Y-74560000D01*
X105905000Y-74310000D02*
X112205000Y-74310000D01*
X112205000Y-76460000D02*
X112205000Y-79060000D01*
%TO.C,J4*%
X123130000Y-71120000D02*
X123130000Y-83880000D01*
X123130000Y-69850000D02*
X123130000Y-68520000D01*
X123130000Y-68520000D02*
X124460000Y-68520000D01*
X123130000Y-71120000D02*
X125790000Y-71120000D01*
X123130000Y-83880000D02*
X125790000Y-83880000D01*
X125790000Y-71120000D02*
X125790000Y-83880000D01*
%TO.C,J2*%
X93920000Y-81280000D02*
X93920000Y-68520000D01*
X96580000Y-68520000D02*
X93920000Y-68520000D01*
X96580000Y-81280000D02*
X93920000Y-81280000D01*
X96580000Y-83880000D02*
X95250000Y-83880000D01*
X96580000Y-82550000D02*
X96580000Y-83880000D01*
X96580000Y-81280000D02*
X96580000Y-68520000D01*
%TD*%
M02*
