M48
; DRILL file {KiCad 7.0.1} date Mo 29 Mai 2023 15:36:47 CEST
; FORMAT={-:-/ absolute / inch / decimal}
; #@! TF.CreationDate,2023-05-29T15:36:47+02:00
; #@! TF.GenerationSoftware,Kicad,Pcbnew,7.0.1
; #@! TF.FileFunction,Plated,1,2,PTH
FMAT,2
INCH
; #@! TA.AperFunction,Plated,PTH,ViaDrill
T1C0.0157
; #@! TA.AperFunction,Plated,PTH,ComponentDrill
T2C0.0256
; #@! TA.AperFunction,Plated,PTH,ComponentDrill
T3C0.0394
%
G90
G05
T1
X4.08Y-2.8
X4.3Y-3.275
X4.8Y-3.1
T2
X4.2Y-2.75
X4.2Y-2.8
X4.25Y-2.75
X4.25Y-2.8
X4.3Y-2.75
X4.3Y-2.8
X4.35Y-2.75
X4.35Y-2.8
X4.4Y-2.75
X4.4Y-2.8
T3
X3.75Y-2.75
X3.75Y-2.85
X3.75Y-2.95
X3.75Y-3.05
X3.75Y-3.15
X3.75Y-3.25
X3.85Y-3.4
X3.85Y-3.5
X3.95Y-3.4
X3.95Y-3.5
X4.05Y-3.4
X4.05Y-3.5
X4.15Y-3.4
X4.15Y-3.5
X4.25Y-3.4
X4.25Y-3.5
X4.35Y-3.4
X4.35Y-3.5
X4.45Y-3.4
X4.45Y-3.5
X4.55Y-3.4
X4.55Y-3.5
X4.65Y-3.4
X4.65Y-3.5
X4.75Y-3.4
X4.75Y-3.5
X4.9Y-2.75
X4.9Y-2.85
X4.9Y-2.95
X4.9Y-3.05
X4.9Y-3.15
X4.9Y-3.25
T0
M30
